<?xml version="1.0" encoding="UTF-8"?>
<svg width="397px" height="113px" viewBox="0 0 397 113" version="1.1" xmlns="http://www.w3.org/2000/svg" xmlns:xlink="http://www.w3.org/1999/xlink">
    <title>Group 7</title>
    <g id="Page-1" stroke="none" stroke-width="1" fill="none" fill-rule="evenodd">
        <g id="Group-7">
            <g id="Group-6">
                <rect id="Rectangle" fill="#6AB7EE" x="0" y="0" width="397" height="113"></rect>
                <g id="SvgjsG1602" transform="translate(145.000000, 26.000000)" fill="#FFFFFF" fill-rule="nonzero">
                    <path d="M18.3124835,0.638807564 C23.1390296,0.638807564 26.7589391,1.98740131 29.1722121,4.61361019 C31.3015707,6.95590459 32.3662499,10.4338569 32.3662499,14.692574 L32.3662499,33.5019078 C32.3662499,42.0903206 27.3977467,47.4846956 18.3124835,47.4846956 L0.567828946,47.4846956 C0.212935855,47.4846956 3.94010481e-15,47.2007811 3.94010481e-15,46.8458881 L3.94010481e-15,1.27761513 C3.94010481e-15,0.922722037 0.212935855,0.638807564 0.567828946,0.638807564 L18.3124835,0.638807564 L18.3124835,0.638807564 Z M23.0680509,31.3725493 L23.0680509,16.8219325 C23.0680509,12.3502796 20.7257565,9.51113485 15.7572533,9.51113485 L9.36917761,9.51113485 L9.36917761,38.6123683 L15.7572533,38.6123683 C20.0159704,38.6123683 23.0680509,35.8442022 23.0680509,31.3725493 Z M4.32969571,4.96850328 L4.32969571,43.1549999 C4.32969571,43.4389144 4.61361019,43.509893 4.75556742,43.509893 L16.3250822,43.509893 C24.4876233,43.509893 28.1785115,38.6123683 28.1785115,34.0697368 L28.1785115,15.8992105 C28.1785115,8.37547696 24.2037088,4.54263157 16.1121463,4.54263157 L4.75556742,4.54263157 C4.61361019,4.54263157 4.32969571,4.61361019 4.32969571,4.96850328 Z M27.326768,15.8992105 L27.326768,34.0697368 C27.326768,39.7480262 21.6484786,42.7291282 16.3250822,42.7291282 L5.18143913,42.7291282 L5.18143913,5.46535361 L16.1121463,5.46535361 C23.5649013,5.46535361 27.326768,8.80134867 27.326768,15.8992105 Z M76.3907379,0.638807564 C81.217284,0.638807564 84.8371935,1.98740131 87.2504665,4.61361019 C89.3798251,6.95590459 90.4445043,10.4338569 90.4445043,14.692574 L90.4445043,33.5019078 C90.4445043,42.0903206 85.476001,47.4846956 76.3907379,47.4846956 L58.6460833,47.4846956 C58.2911903,47.4846956 58.0782544,47.2007811 58.0782544,46.8458881 L58.0782544,1.27761513 C58.0782544,0.922722037 58.2911903,0.638807564 58.6460833,0.638807564 L76.3907379,0.638807564 L76.3907379,0.638807564 Z M81.1463053,31.3725493 L81.1463053,16.8219325 C81.1463053,12.3502796 78.8040109,9.51113485 73.8355077,9.51113485 L67.447432,9.51113485 L67.447432,38.6123683 L73.8355077,38.6123683 C78.0942247,38.6123683 81.1463053,35.8442022 81.1463053,31.3725493 Z M62.4079501,4.96850328 L62.4079501,43.1549999 C62.4079501,43.4389144 62.6918646,43.509893 62.8338218,43.509893 L74.4033366,43.509893 C82.5658777,43.509893 86.2567659,38.6123683 86.2567659,34.0697368 L86.2567659,15.8992105 C86.2567659,8.37547696 82.2819632,4.54263157 74.1904007,4.54263157 L62.8338218,4.54263157 C62.6918646,4.54263157 62.4079501,4.61361019 62.4079501,4.96850328 L62.4079501,4.96850328 Z M85.4050224,15.8992105 L85.4050224,34.0697368 C85.4050224,39.7480262 79.726733,42.7291282 74.4033366,42.7291282 L63.2596935,42.7291282 L63.2596935,5.46535361 L74.1904007,5.46535361 C81.6431557,5.46535361 85.4050224,8.80134867 85.4050224,15.8992105 L85.4050224,15.8992105 Z M135.533672,1.27761513 C135.533672,0.922722037 135.817586,0.638807564 136.172479,0.638807564 L144.33502,0.638807564 C144.689913,0.638807564 144.973828,0.922722037 144.973828,1.27761513 L144.973828,46.8458881 C144.973828,47.2007811 144.689913,47.4846956 144.33502,47.4846956 L136.456394,47.4846956 C136.172479,47.4846956 135.888565,47.3427384 135.817586,47.1298025 L125.454708,23.7778371 L125.454708,46.8458881 C125.454708,47.2007811 125.170793,47.4846956 124.8159,47.4846956 L116.724338,47.4846956 C116.369445,47.4846956 116.156509,47.2007811 116.156509,46.8458881 L116.156509,1.27761513 C116.156509,0.922722037 116.369445,0.638807564 116.724338,0.638807564 L125.099815,0.638807564 C125.383729,0.638807564 125.525686,0.851743419 125.596665,0.993700656 L135.533672,23.9197944 L135.533672,1.27761513 L135.533672,1.27761513 Z M140.644132,43.2259785 L140.644132,4.89752466 C140.644132,4.40067433 139.72141,4.2587171 139.72141,4.89752466 L139.72141,41.3805345 L121.195991,4.75556742 C120.983055,4.47165295 120.415226,4.47165295 120.415226,4.89752466 L120.415226,43.1549999 C120.415226,43.7938075 121.266969,43.7938075 121.266969,43.1549999 L121.266969,6.74296874 L139.72141,43.2969571 C140.005325,43.7938075 140.644132,43.6518502 140.644132,43.2259785 L140.644132,43.2259785 Z M187.578743,18.7383552 C192.973118,21.2935855 200.000002,25.3393667 200.000002,32.6501644 C200.000002,34.779523 199.645109,38.8962828 197.302814,42.3742351 C194.676605,46.2780591 190.559845,48.1944818 184.881556,48.1944818 C178.848373,48.1944818 171.82149,45.2843585 169.621153,38.683347 C169.550174,38.4704111 169.621153,38.2574752 169.834089,38.115518 L176.364122,32.5082072 C176.648036,32.2952713 177.073908,32.2952713 177.286844,32.6501644 C177.428801,33.0050575 177.712715,33.5728864 178.067609,34.2826726 C179.132288,36.4830098 181.687518,38.683347 184.526663,38.683347 C186.727,38.683347 189.708102,37.4767104 189.708102,34.0697368 C189.708102,30.8047203 185.236449,28.9592763 182.468283,27.894597 C179.274245,26.6169819 176.009229,24.9844736 173.241063,22.5712006 C170.330939,19.8740131 168.911367,16.8929111 168.911367,13.3439802 C168.911367,4.47165295 177.073908,6.3041677e-15 184.810577,6.3041677e-15 C190.914738,6.3041677e-15 195.45737,3.19403782 198.438472,9.51113485 C198.580429,9.79504932 198.438472,10.1499424 198.225536,10.2918996 L191.908439,14.692574 C191.624525,14.8345312 191.482567,14.8345312 191.198653,14.4796381 C188.78538,11.0016858 186.656021,9.36917761 183.816877,9.36917761 C182.326326,9.36917761 178.848373,9.93700656 178.848373,12.5632154 C178.848373,15.7572533 184.739599,17.3897615 187.578743,18.7383552 L187.578743,18.7383552 Z M174.660635,38.3284539 C176.4351,41.8773848 181.332625,43.9357647 185.307428,43.9357647 C190.488867,43.9357647 194.676605,40.3868338 195.244434,34.9924588 C195.95422,28.3914473 190.772781,25.5523026 185.662321,22.9970723 L183.391005,22.0033717 C178.138587,19.6610773 174.305742,17.8866118 174.305742,12.9890871 C174.305742,7.59471215 179.274245,5.11046052 184.17177,5.11046052 C188.643423,5.11046052 190.985717,7.73666939 192.192354,9.36917761 C192.618225,9.93700656 193.328012,9.44015623 192.90214,8.87232728 C191.695503,7.3817763 189.140273,4.2587171 184.17177,4.2587171 C178.564459,4.2587171 173.453998,7.02688321 173.453998,12.9890871 C173.453998,18.3124835 177.712715,20.3708634 183.10709,22.8551151 L185.307428,23.9197944 C192.334311,27.2557894 194.889541,30.3788486 194.321712,34.9214802 C193.257033,42.1612993 187.720701,43.0840213 185.307428,43.0840213 C179.984031,43.0840213 176.4351,39.8899835 175.370421,37.9025822 C175.015528,37.5476891 174.518678,37.9025822 174.660635,38.3284539 L174.660635,38.3284539 Z" id="Shape"></path>
                </g>
            </g>
            <g id="Group" transform="translate(9.000000, 6.000000)" fill="#F3F6F6" fill-rule="nonzero">
                <path d="M50.9083349,0 C39.4134272,0 30.2203375,9.11571252 29.4333333,20.483028 C27.1168879,21.0481478 24.9255838,21.9457808 22.9666667,23.1897437 C17.0666667,26.5836346 12.9239424,33.9916972 12.7833335,41.7797302 C12.7878989,53.8573538 22.5414153,63.7240551 34.5499998,63.7240551 L49.0666667,63.7240551 L49.0666667,76.4937731 C49.0666667,78.885407 47.2006869,80.7448109 44.8,80.7448109 L42.3583317,80.7448109 C41.3999403,77.0958518 38.0820297,74.3682542 34.1333333,74.3682542 C29.4457788,74.3682542 25.6,78.1997146 25.6,82.8703298 C25.6,87.54052 29.4457788,91.3724067 34.1333333,91.3724067 C38.0792491,91.3724067 41.397248,88.6407693 42.3583317,84.9958487 L44.8,84.9958487 C49.4905899,84.9958487 53.3333333,81.166939 53.3333333,76.4937731 L53.3333333,38.2344327 L49.0666667,38.2344327 L49.0666667,59.4730172 L34.5499998,59.4730172 C24.8755554,59.4730172 17.0499994,51.5862241 17.0500002,41.7714279 C17.0487057,35.39187 20.4100083,29.7457096 25.5333333,26.6271057 C25.8190165,26.4526856 26.1208538,26.3035592 26.4166665,26.1455439 C26.968576,25.8520522 27.53001,25.5828638 28.1166669,25.3484739 C28.4128674,25.2295128 28.7127757,25.1191134 29.0166665,25.0163616 C29.7286016,24.7768368 30.464064,24.5831765 31.2166665,24.4351648 C32.2991859,24.2233526 33.4032346,24.0781456 34.5499998,24.0781456 C39.6150699,24.0781456 44.1576832,26.2347745 47.3583317,29.7074515 C49.2726827,31.9447132 52.5733888,28.9265146 50.5000021,26.8346767 C46.5315456,22.5288017 40.8387669,19.8271078 34.5499998,19.8271078 C34.2336265,19.8271078 33.9299383,19.8799864 33.6166665,19.8935302 C34.6314086,11.0704294 41.9295019,4.2510391 50.9083349,4.2510391 C59.3044181,4.25529013 66.5101099,10.2571578 68.0916651,18.6232003 C68.3663957,20.0902474 70.0331648,20.8259219 71.3083349,20.0429806 C74.0422059,18.3621202 77.1690923,17.4691098 80.3583317,17.4691098 C90.032832,17.4691098 97.8583339,25.3475982 97.8583339,35.162396 C97.8584533,36.3362393 98.8135083,37.2877959 99.9916672,37.2879149 C106.051806,37.2879149 110.949973,42.2147615 110.949999,48.3804667 C110.949973,54.546172 106.051806,59.4730185 99.9916672,59.4730185 L78.9333333,59.4730185 L78.9333333,38.234434 L74.6666667,38.234434 L74.6666667,76.4937744 C74.6666667,81.1669402 78.5094101,84.99585 83.2,84.99585 L85.6416683,84.99585 C86.602752,88.6407706 89.9207509,91.3724067 93.8666667,91.3724067 C98.5542229,91.3724067 102.4,87.5405212 102.4,82.8703311 C102.4,78.1997158 98.5542229,74.3682554 93.8666667,74.3682554 C89.9179691,74.3682554 86.6000597,77.0958531 85.6416683,80.7448122 L83.2,80.7448122 C80.7993131,80.7448122 78.9333333,78.8854082 78.9333333,76.4937744 L78.9333333,63.7240563 L99.9916672,63.7240563 C108.38871,63.7240563 115.216666,56.8128253 115.216666,48.3804667 C115.216666,40.5823629 109.293845,34.3353013 101.775002,33.4021985 C100.839317,22.1794591 91.7499861,13.218072 80.3583317,13.218072 C77.2256512,13.218072 74.3160917,14.4262038 71.4916651,15.733823 C68.7524352,6.58303899 60.5811285,0.0051025207 50.9083349,0 L50.9083349,0 Z M57.6,29.7323571 L57.6,67.9916974 L61.8666667,67.9916974 L61.8666667,29.7323571 L57.6,29.7323571 Z M66.1333333,29.7323571 L66.1333333,67.9916974 L70.4,67.9916974 L70.4,29.7323571 L66.1333333,29.7323571 Z M57.6,72.2427353 L57.6,76.4937731 L61.8666667,76.4937731 L61.8666667,72.2427353 L57.6,72.2427353 Z M66.1333333,72.2427353 L66.1333333,76.4937731 L70.4,76.4937731 L70.4,72.2427353 L66.1333333,72.2427353 Z M34.1333333,78.619292 C36.5150234,78.619292 38.4,80.4974005 38.4,82.8703298 C38.4,85.2432591 36.5150234,87.1213676 34.1333333,87.1213676 C31.7516433,87.1213676 29.8666667,85.2432591 29.8666667,82.8703298 C29.8666667,80.4974005 31.7516433,78.619292 34.1333333,78.619292 Z M93.8666667,78.619292 C96.2483584,78.619292 98.1333333,80.4974005 98.1333333,82.8703298 C98.1333333,85.2432591 96.2483584,87.1213676 93.8666667,87.1213676 C91.4849749,87.1213676 89.6,85.2432591 89.6,82.8703298 C89.6,80.4974005 91.4849749,78.619292 93.8666667,78.619292 Z M0,80.7448109 L0,84.9958487 L4.26666667,84.9958487 L4.26666667,80.7448109 L0,80.7448109 Z M8.53333333,80.7448109 L8.53333333,84.9958487 L12.8,84.9958487 L12.8,80.7448109 L8.53333333,80.7448109 Z M17.0666667,80.7448109 L17.0666667,84.9958487 L21.3333333,84.9958487 L21.3333333,80.7448109 L17.0666667,80.7448109 Z M57.6,80.7448109 L57.6,84.9958487 L61.8666667,84.9958487 L61.8666667,80.7448109 L57.6,80.7448109 Z M66.1333333,80.7448109 L66.1333333,84.9958487 L70.4,84.9958487 L70.4,80.7448109 L66.1333333,80.7448109 Z M106.666667,80.7448109 L106.666667,84.9958487 L110.933333,84.9958487 L110.933333,80.7448109 L106.666667,80.7448109 Z M115.2,80.7448109 L115.2,84.9958487 L119.466667,84.9958487 L119.466667,80.7448109 L115.2,80.7448109 Z M123.733333,80.7448109 L123.733333,84.9958487 L128,84.9958487 L128,80.7448109 L123.733333,80.7448109 Z M57.6,89.2468865 L57.6,93.4979244 L61.8666667,93.4979244 L61.8666667,89.2468865 L57.6,89.2468865 Z M66.1333333,89.2468865 L66.1333333,93.4979244 L70.4,93.4979244 L70.4,89.2468865 L66.1333333,89.2468865 Z M57.6,97.7489622 L57.6,102 L61.8666667,102 L61.8666667,97.7489622 L57.6,97.7489622 Z M66.1333333,97.7489622 L66.1333333,102 L70.4,102 L70.4,97.7489622 L66.1333333,97.7489622 Z" id="Shape"></path>
            </g>
        </g>
    </g>
</svg>