<?xml version="1.0" encoding="UTF-8"?>
<svg width="313px" height="283px" viewBox="0 0 313 283" version="1.1" xmlns="http://www.w3.org/2000/svg" xmlns:xlink="http://www.w3.org/1999/xlink">
    <title>Group 2</title>
    <g id="Page-1" stroke="none" stroke-width="1" fill="none" fill-rule="evenodd">
        <g id="Group-2" transform="translate(0.579104, 1.000000)">
            <rect id="Rectangle" stroke="#979797" fill="#6AB7EE" x="2.84217094e-14" y="0" width="311.197015" height="281"></rect>
            <g id="SvgjsG1601" transform="translate(74.420896, 38.000000)" fill="#F3F6F6" fill-rule="nonzero">
                <g id="Group">
                    <path d="M64.4308614,0 C49.8826188,0 38.2476146,11.618065 37.2515625,26.1058201 C34.3198112,26.8260708 31.546442,27.9701128 29.0671875,29.5555557 C21.6,33.8811029 16.3568646,43.3227513 16.1789065,53.2486758 C16.1846845,68.6417254 28.5289787,81.2169329 43.7273435,81.2169329 L62.1,81.2169329 L62.1,97.4920637 C62.1,100.540225 59.7383694,102.910053 56.7,102.910053 L53.6097636,102.910053 C52.3967994,98.259419 48.1975688,94.783069 43.2,94.783069 C37.2673138,94.783069 32.4,99.6663029 32.4,105.619048 C32.4,111.571251 37.2673138,116.455028 43.2,116.455028 C48.1940496,116.455028 52.393392,112.97353 53.6097636,108.328042 L56.7,108.328042 C62.6365278,108.328042 67.5,103.448059 67.5,97.4920637 L67.5,48.7301593 L62.1,48.7301593 L62.1,75.7989435 L43.7273435,75.7989435 C31.4831248,75.7989435 21.5789054,65.7471483 21.5789065,53.2380944 C21.5772682,45.1072853 25.8314168,37.9111985 32.315625,33.9365073 C32.6771928,33.7142072 33.0592055,33.5241441 33.4335935,33.322752 C34.132104,32.948694 34.8426689,32.6056107 35.5851565,32.3068785 C35.9600353,32.1552615 36.3396067,32.0145563 36.7242185,31.8835981 C37.6252614,31.5783214 38.556081,31.3314995 39.5085935,31.1428571 C40.8786572,30.8729003 42.2759687,30.6878326 43.7273435,30.6878326 C50.1378228,30.6878326 55.8870678,33.4364773 59.9378886,37.8624382 C62.360739,40.7138501 66.5381952,36.8671265 63.9140652,34.2010585 C58.8914874,28.7131787 51.6865644,25.2698433 43.7273435,25.2698433 C43.3269335,25.2698433 42.9425782,25.3372376 42.5460935,25.3544993 C43.8303766,14.1093708 53.0670258,5.417991 64.4308614,5.417991 C75.0571542,5.42340899 84.1768578,13.0728482 86.1785136,23.7354513 C86.5262196,25.6052173 88.6357242,26.5428416 90.2496114,25.5449753 C93.7096668,23.4027023 97.6671324,22.2645517 101.703514,22.2645517 C113.947803,22.2645517 123.851954,32.3057624 123.851954,44.8148184 C123.852105,46.3108932 125.060846,47.5236614 126.551954,47.5238131 C134.221817,47.5238131 140.42106,53.8031273 140.421092,61.6613791 C140.42106,69.5196309 134.221817,75.7989452 126.551954,75.7989452 L99.9,75.7989452 L99.9,48.7301609 L94.5,48.7301609 L94.5,97.4920654 C94.5,103.448061 99.3634722,108.328044 105.3,108.328044 L108.390236,108.328044 C109.606608,112.973531 113.80595,116.455028 118.8,116.455028 C124.732688,116.455028 129.6,111.571253 129.6,105.619049 C129.6,99.6663045 124.732688,94.7830707 118.8,94.7830707 C113.80243,94.7830707 109.603201,98.2594206 108.390236,102.910055 L105.3,102.910055 C102.261631,102.910055 99.9,100.540226 99.9,97.4920654 L99.9,81.2169346 L126.551954,81.2169346 C137.179462,81.2169346 145.821092,72.4085029 145.821092,61.6613791 C145.821092,51.7226194 138.325023,43.7606781 128.808986,42.5714295 C127.624761,28.2679381 116.121076,16.8465623 101.703514,16.8465623 C97.7387148,16.8465623 94.0563036,18.3863381 90.4816386,20.0529117 C87.0148008,8.39014773 76.6729908,0.00650321265 64.4308614,0 L64.4308614,0 Z M72.9,37.8941806 L72.9,86.656085 L78.3,86.656085 L78.3,37.8941806 L72.9,37.8941806 Z M83.7,37.8941806 L83.7,86.656085 L89.1,86.656085 L89.1,37.8941806 L83.7,37.8941806 Z M72.9,92.0740744 L72.9,97.4920637 L78.3,97.4920637 L78.3,92.0740744 L72.9,92.0740744 Z M83.7,92.0740744 L83.7,97.4920637 L89.1,97.4920637 L89.1,92.0740744 L83.7,92.0740744 Z M43.2,100.201058 C46.2143264,100.201058 48.6,102.594726 48.6,105.619048 C48.6,108.643369 46.2143264,111.037037 43.2,111.037037 C40.1856736,111.037037 37.8,108.643369 37.8,105.619048 C37.8,102.594726 40.1856736,100.201058 43.2,100.201058 Z M118.8,100.201058 C121.814329,100.201058 124.2,102.594726 124.2,105.619048 C124.2,108.643369 121.814329,111.037037 118.8,111.037037 C115.785671,111.037037 113.4,108.643369 113.4,105.619048 C113.4,102.594726 115.785671,100.201058 118.8,100.201058 Z M0,102.910053 L0,108.328042 L5.4,108.328042 L5.4,102.910053 L0,102.910053 Z M10.8,102.910053 L10.8,108.328042 L16.2,108.328042 L16.2,102.910053 L10.8,102.910053 Z M21.6,102.910053 L21.6,108.328042 L27,108.328042 L27,102.910053 L21.6,102.910053 Z M72.9,102.910053 L72.9,108.328042 L78.3,108.328042 L78.3,102.910053 L72.9,102.910053 Z M83.7,102.910053 L83.7,108.328042 L89.1,108.328042 L89.1,102.910053 L83.7,102.910053 Z M135,102.910053 L135,108.328042 L140.4,108.328042 L140.4,102.910053 L135,102.910053 Z M145.8,102.910053 L145.8,108.328042 L151.2,108.328042 L151.2,102.910053 L145.8,102.910053 Z M156.6,102.910053 L156.6,108.328042 L162,108.328042 L162,102.910053 L156.6,102.910053 Z M72.9,113.746032 L72.9,119.164021 L78.3,119.164021 L78.3,113.746032 L72.9,113.746032 Z M83.7,113.746032 L83.7,119.164021 L89.1,119.164021 L89.1,113.746032 L83.7,113.746032 Z M72.9,124.582011 L72.9,130 L78.3,130 L78.3,124.582011 L72.9,124.582011 Z M83.7,124.582011 L83.7,130 L89.1,130 L89.1,124.582011 L83.7,124.582011 Z" id="Shape"></path>
                </g>
            </g>
            <g id="SvgjsG1602" transform="translate(55.420896, 174.000000)" fill="#FFFFFF" fill-rule="nonzero">
                <path d="M18.3124835,0.638807564 C23.1390296,0.638807564 26.7589391,1.98740131 29.1722121,4.61361019 C31.3015707,6.95590459 32.3662499,10.4338569 32.3662499,14.692574 L32.3662499,33.5019078 C32.3662499,42.0903206 27.3977467,47.4846956 18.3124835,47.4846956 L0.567828946,47.4846956 C0.212935855,47.4846956 3.94010481e-15,47.2007811 3.94010481e-15,46.8458881 L3.94010481e-15,1.27761513 C3.94010481e-15,0.922722037 0.212935855,0.638807564 0.567828946,0.638807564 L18.3124835,0.638807564 L18.3124835,0.638807564 Z M23.0680509,31.3725493 L23.0680509,16.8219325 C23.0680509,12.3502796 20.7257565,9.51113485 15.7572533,9.51113485 L9.36917761,9.51113485 L9.36917761,38.6123683 L15.7572533,38.6123683 C20.0159704,38.6123683 23.0680509,35.8442022 23.0680509,31.3725493 Z M4.32969571,4.96850328 L4.32969571,43.1549999 C4.32969571,43.4389144 4.61361019,43.509893 4.75556742,43.509893 L16.3250822,43.509893 C24.4876233,43.509893 28.1785115,38.6123683 28.1785115,34.0697368 L28.1785115,15.8992105 C28.1785115,8.37547696 24.2037088,4.54263157 16.1121463,4.54263157 L4.75556742,4.54263157 C4.61361019,4.54263157 4.32969571,4.61361019 4.32969571,4.96850328 Z M27.326768,15.8992105 L27.326768,34.0697368 C27.326768,39.7480262 21.6484786,42.7291282 16.3250822,42.7291282 L5.18143913,42.7291282 L5.18143913,5.46535361 L16.1121463,5.46535361 C23.5649013,5.46535361 27.326768,8.80134867 27.326768,15.8992105 Z M76.3907379,0.638807564 C81.217284,0.638807564 84.8371935,1.98740131 87.2504665,4.61361019 C89.3798251,6.95590459 90.4445043,10.4338569 90.4445043,14.692574 L90.4445043,33.5019078 C90.4445043,42.0903206 85.476001,47.4846956 76.3907379,47.4846956 L58.6460833,47.4846956 C58.2911903,47.4846956 58.0782544,47.2007811 58.0782544,46.8458881 L58.0782544,1.27761513 C58.0782544,0.922722037 58.2911903,0.638807564 58.6460833,0.638807564 L76.3907379,0.638807564 L76.3907379,0.638807564 Z M81.1463053,31.3725493 L81.1463053,16.8219325 C81.1463053,12.3502796 78.8040109,9.51113485 73.8355077,9.51113485 L67.447432,9.51113485 L67.447432,38.6123683 L73.8355077,38.6123683 C78.0942247,38.6123683 81.1463053,35.8442022 81.1463053,31.3725493 Z M62.4079501,4.96850328 L62.4079501,43.1549999 C62.4079501,43.4389144 62.6918646,43.509893 62.8338218,43.509893 L74.4033366,43.509893 C82.5658777,43.509893 86.2567659,38.6123683 86.2567659,34.0697368 L86.2567659,15.8992105 C86.2567659,8.37547696 82.2819632,4.54263157 74.1904007,4.54263157 L62.8338218,4.54263157 C62.6918646,4.54263157 62.4079501,4.61361019 62.4079501,4.96850328 L62.4079501,4.96850328 Z M85.4050224,15.8992105 L85.4050224,34.0697368 C85.4050224,39.7480262 79.726733,42.7291282 74.4033366,42.7291282 L63.2596935,42.7291282 L63.2596935,5.46535361 L74.1904007,5.46535361 C81.6431557,5.46535361 85.4050224,8.80134867 85.4050224,15.8992105 L85.4050224,15.8992105 Z M135.533672,1.27761513 C135.533672,0.922722037 135.817586,0.638807564 136.172479,0.638807564 L144.33502,0.638807564 C144.689913,0.638807564 144.973828,0.922722037 144.973828,1.27761513 L144.973828,46.8458881 C144.973828,47.2007811 144.689913,47.4846956 144.33502,47.4846956 L136.456394,47.4846956 C136.172479,47.4846956 135.888565,47.3427384 135.817586,47.1298025 L125.454708,23.7778371 L125.454708,46.8458881 C125.454708,47.2007811 125.170793,47.4846956 124.8159,47.4846956 L116.724338,47.4846956 C116.369445,47.4846956 116.156509,47.2007811 116.156509,46.8458881 L116.156509,1.27761513 C116.156509,0.922722037 116.369445,0.638807564 116.724338,0.638807564 L125.099815,0.638807564 C125.383729,0.638807564 125.525686,0.851743419 125.596665,0.993700656 L135.533672,23.9197944 L135.533672,1.27761513 L135.533672,1.27761513 Z M140.644132,43.2259785 L140.644132,4.89752466 C140.644132,4.40067433 139.72141,4.2587171 139.72141,4.89752466 L139.72141,41.3805345 L121.195991,4.75556742 C120.983055,4.47165295 120.415226,4.47165295 120.415226,4.89752466 L120.415226,43.1549999 C120.415226,43.7938075 121.266969,43.7938075 121.266969,43.1549999 L121.266969,6.74296874 L139.72141,43.2969571 C140.005325,43.7938075 140.644132,43.6518502 140.644132,43.2259785 L140.644132,43.2259785 Z M187.578743,18.7383552 C192.973118,21.2935855 200.000002,25.3393667 200.000002,32.6501644 C200.000002,34.779523 199.645109,38.8962828 197.302814,42.3742351 C194.676605,46.2780591 190.559845,48.1944818 184.881556,48.1944818 C178.848373,48.1944818 171.82149,45.2843585 169.621153,38.683347 C169.550174,38.4704111 169.621153,38.2574752 169.834089,38.115518 L176.364122,32.5082072 C176.648036,32.2952713 177.073908,32.2952713 177.286844,32.6501644 C177.428801,33.0050575 177.712715,33.5728864 178.067609,34.2826726 C179.132288,36.4830098 181.687518,38.683347 184.526663,38.683347 C186.727,38.683347 189.708102,37.4767104 189.708102,34.0697368 C189.708102,30.8047203 185.236449,28.9592763 182.468283,27.894597 C179.274245,26.6169819 176.009229,24.9844736 173.241063,22.5712006 C170.330939,19.8740131 168.911367,16.8929111 168.911367,13.3439802 C168.911367,4.47165295 177.073908,6.3041677e-15 184.810577,6.3041677e-15 C190.914738,6.3041677e-15 195.45737,3.19403782 198.438472,9.51113485 C198.580429,9.79504932 198.438472,10.1499424 198.225536,10.2918996 L191.908439,14.692574 C191.624525,14.8345312 191.482567,14.8345312 191.198653,14.4796381 C188.78538,11.0016858 186.656021,9.36917761 183.816877,9.36917761 C182.326326,9.36917761 178.848373,9.93700656 178.848373,12.5632154 C178.848373,15.7572533 184.739599,17.3897615 187.578743,18.7383552 L187.578743,18.7383552 Z M174.660635,38.3284539 C176.4351,41.8773848 181.332625,43.9357647 185.307428,43.9357647 C190.488867,43.9357647 194.676605,40.3868338 195.244434,34.9924588 C195.95422,28.3914473 190.772781,25.5523026 185.662321,22.9970723 L183.391005,22.0033717 C178.138587,19.6610773 174.305742,17.8866118 174.305742,12.9890871 C174.305742,7.59471215 179.274245,5.11046052 184.17177,5.11046052 C188.643423,5.11046052 190.985717,7.73666939 192.192354,9.36917761 C192.618225,9.93700656 193.328012,9.44015623 192.90214,8.87232728 C191.695503,7.3817763 189.140273,4.2587171 184.17177,4.2587171 C178.564459,4.2587171 173.453998,7.02688321 173.453998,12.9890871 C173.453998,18.3124835 177.712715,20.3708634 183.10709,22.8551151 L185.307428,23.9197944 C192.334311,27.2557894 194.889541,30.3788486 194.321712,34.9214802 C193.257033,42.1612993 187.720701,43.0840213 185.307428,43.0840213 C179.984031,43.0840213 176.4351,39.8899835 175.370421,37.9025822 C175.015528,37.5476891 174.518678,37.9025822 174.660635,38.3284539 L174.660635,38.3284539 Z" id="Shape"></path>
            </g>
            <g id="SvgjsG1603" transform="translate(55.420895, 227.999996)" fill="#FFFFFF" fill-rule="nonzero">
                <path d="M9.16468053,12.1284316 C9.18518317,13.1125584 9.16468053,14.1171878 9.10317261,15.1013146 C9.10317261,15.1833251 9.04166468,15.2653357 8.98015676,15.306341 C8.8981462,15.3678489 8.79563299,15.4088542 8.69311979,15.4088542 C7.42195604,15.6138806 5.88425797,15.7163938 4.65409951,15.306341 C1.88624297,14.3632195 9.10500164e-16,11.2673207 9.10500164e-16,7.72036379 C9.10500164e-16,3.88636993 2.74735389,0.154889263 6.74536889,0.0113707758 C7.27843756,-0.00913186524 9.10317261,-0.0911424293 9.04166468,0.810973775 C9.0006594,1.46705829 9.06216732,2.00012695 9.04166468,2.67671411 C9.04166468,2.79972995 8.95965412,2.88174052 8.83663827,2.86123788 C7.66798773,2.71771939 6.33531607,2.34867185 5.20767081,2.88174052 C4.26454933,3.33279862 3.60846482,4.29642275 3.23941728,5.23954423 C2.58333277,6.79774495 2.72685125,8.60197736 3.17790936,10.2011834 C3.52645425,11.4723471 4.28505197,12.9690399 5.8022474,13.0100452 C5.88425797,13.0305478 6.66335833,13.0715531 6.66335833,12.9895425 L6.6018504,10.3652045 C6.58134776,10.2421886 6.58134776,10.1191728 6.56084512,9.99615694 C6.54034248,9.8731411 6.45833192,9.83213582 6.33531607,9.81163317 C6.00727381,9.81163317 6.00727381,9.79113053 5.67923156,9.79113053 C4.92063384,9.79113053 5.08465497,9.27856451 5.06415233,9.11454338 C5.04364969,8.80700377 5.06415233,8.51996679 5.04364969,8.21242718 C5.02314705,7.9253902 5.10515761,7.69986115 5.39219458,7.65885587 L5.63822628,7.65885587 C6.70436361,7.59734795 7.79100358,7.67935851 8.91864884,7.67935851 C9.08266996,7.67935851 9.16468053,7.88438492 9.16468053,8.06890869 C9.18518317,8.2739351 9.18518317,8.41745359 9.18518317,8.62248 C9.24669109,9.62710941 9.12367525,10.6522415 9.14417789,11.6568709 C9.16468053,11.820892 9.16468053,11.9644105 9.16468053,12.1284316 L9.16468053,12.1284316 Z M13.5583965,11.3698339 L13.5378939,11.3698339 C13.5378939,11.8823999 13.5173912,12.4154686 13.5378939,12.9485372 C13.5583965,13.6046218 13.5994018,14.2607063 13.6404071,14.9167908 C13.6404071,15.1423198 13.701915,15.2038278 13.9069414,15.244833 C14.3374969,15.3473462 14.7475497,15.3678489 15.1781051,15.3678489 C16.2852477,15.3268436 17.3923904,15.4088542 18.499533,15.3678489 C18.9505911,15.3473462 19.1556175,15.3883515 19.6066756,15.306341 C20.0167284,15.2243304 20.1602469,14.9988013 20.1602469,14.3837221 C20.1192416,13.9941719 20.1397443,13.8301508 20.1397443,13.3585901 C20.1397443,12.6820029 19.6681835,12.4564739 19.2581307,12.4769765 C18.9710937,12.4974791 17.5974168,12.4564739 17.0438455,12.4564739 C16.1212266,12.4769765 16.2647451,12.5999924 16.2647451,11.6363682 C16.2647451,10.8572679 16.2852477,9.85263846 16.2852477,9.05303546 C16.2852477,8.62248 16.326253,8.47896151 16.7363059,8.47896151 L19.299136,8.47896151 C19.7091888,8.54046943 19.9962258,8.25343246 19.9962258,7.822877 C19.9962258,7.39232154 20.0372311,7.3718189 20.0372311,6.94126343 L19.9757231,6.3261842 C19.9347178,5.97763931 19.811702,5.85462346 19.4631571,5.85462346 C19.2376281,5.85462346 19.012099,5.8751261 18.78657,5.89562874 C17.9049564,5.95713667 17.4949036,5.83412082 16.6337926,5.89562874 C16.3467557,5.89562874 16.3057504,5.85462346 16.2852477,5.58808913 C16.2032372,4.78848613 16.2852477,3.90687257 16.3672583,3.10726957 C16.387761,2.77922731 16.4697715,2.71771939 16.7773111,2.69721675 L19.6681835,2.67671411 C20.0577337,2.63570882 20.1807495,2.65621147 20.1602469,2.26666129 C20.1192416,1.6720847 20.1807495,1.05700547 20.1192416,0.462428878 C20.0782363,0.134386622 19.9757231,0.0728786988 19.6066756,0.0728786988 C18.9915964,0.0933813398 18.8480779,0.0933813398 18.2329986,0.134386622 C17.6179194,0.154889263 15.1576025,0.154889263 14.5630259,0.154889263 C13.701915,0.154889263 13.6404071,0.0933813398 13.6199044,1.13901603 C13.5788991,1.95912167 13.5994018,2.79972995 13.5994018,3.64033823 C13.5994018,5.0755231 13.5173912,10.221686 13.5583965,11.3698339 L13.5583965,11.3698339 Z M33.22658,0.667455288 C33.2880879,0.954492262 33.2470826,14.6092512 33.2470826,14.9577961 C33.2470826,15.5728753 33.0215536,15.5523727 32.6115008,15.5523727 C31.9964215,15.5523727 31.1353106,15.6548859 30.9507869,15.4498595 C30.7867657,15.306341 27.7523749,7.98689813 27.3218194,7.06427928 C27.2808141,6.98226872 27.1783009,6.77724231 27.0962903,6.81824759 C26.9937771,6.85925287 27.0347824,7.00277136 27.0347824,7.08478192 C27.0142798,7.80237436 27.1372956,13.9941719 27.1372956,14.9782987 C27.1372956,15.4703621 27.116793,15.5523727 26.7067402,15.5523727 L25.6816081,15.5523727 C25.4150738,15.5523727 25.0870315,15.53187 24.8204972,15.5728753 C24.6154708,15.5728753 24.5129576,15.5113674 24.4924549,15.306341 L24.4924549,13.6866323 C24.5334602,11.9644105 24.4924549,1.75409526 24.4924549,0.995497544 C24.4924549,0.339413032 24.6769787,0.216397186 25.3330632,0.216397186 C25.7841213,0.195894545 26.2351794,0.195894545 26.6862375,0.195894545 C26.829756,0.195894545 26.9117666,0.216397186 26.9937771,0.400920955 C27.5473485,1.69258734 29.9051522,7.61785059 30.2741997,8.33544302 C30.3357076,8.47896151 30.5612367,9.05303546 30.6842525,9.11454338 L30.7047552,9.11454338 C30.7867657,9.03253282 30.7662631,8.62248 30.7662631,8.49946415 C30.7662631,8.19192454 30.602242,0.995497544 30.602242,0.851979057 C30.602242,0.646952647 30.540734,0.462428878 30.6432472,0.318910391 C30.7047552,0.236899827 30.9712895,0.216397186 31.0738027,0.195894545 C31.6478767,0.154889263 32.3244638,0.216397186 32.8985378,0.195894545 C33.1855747,0.195894545 33.1650721,0.400920955 33.22658,0.667455288 L33.22658,0.667455288 Z M37.620296,11.3698339 L37.5997933,11.3698339 C37.5997933,11.8823999 37.5792907,12.4154686 37.5997933,12.9485372 C37.620296,13.6046218 37.6613013,14.2607063 37.7023065,14.9167908 C37.7023065,15.1423198 37.7638145,15.2038278 37.9688409,15.244833 C38.3993963,15.3473462 38.8094492,15.3678489 39.2400046,15.3678489 C40.3471472,15.3268436 41.4542898,15.4088542 42.5614325,15.3678489 C43.0124906,15.3473462 43.217517,15.3883515 43.6685751,15.306341 C44.0786279,15.2243304 44.2221464,14.9988013 44.2221464,14.3837221 C44.1811411,13.9941719 44.2016437,13.8301508 44.2016437,13.3585901 C44.2016437,12.6820029 43.730083,12.4564739 43.3200302,12.4769765 C43.0329932,12.4974791 41.6593163,12.4564739 41.1057449,12.4564739 C40.1831261,12.4769765 40.3266446,12.5999924 40.3266446,11.6363682 C40.3266446,10.8572679 40.3471472,9.85263846 40.3471472,9.05303546 C40.3471472,8.62248 40.3881525,8.47896151 40.7982053,8.47896151 L43.3610355,8.47896151 C43.7710883,8.54046943 44.0581253,8.25343246 44.0581253,7.822877 C44.0581253,7.39232154 44.0991305,7.3718189 44.0991305,6.94126343 L44.0376226,6.3261842 C43.9966173,5.97763931 43.8736015,5.85462346 43.5250566,5.85462346 C43.2995275,5.85462346 43.0739985,5.8751261 42.8484694,5.89562874 C41.9668559,5.95713667 41.556803,5.83412082 40.6956921,5.89562874 C40.4086552,5.89562874 40.3676499,5.85462346 40.3471472,5.58808913 C40.2651367,4.78848613 40.3471472,3.90687257 40.4291578,3.10726957 C40.4496604,2.77922731 40.531671,2.71771939 40.8392106,2.69721675 L43.730083,2.67671411 C44.1196332,2.63570882 44.242649,2.65621147 44.2221464,2.26666129 C44.1811411,1.6720847 44.242649,1.05700547 44.1811411,0.462428878 C44.1401358,0.134386622 44.0376226,0.0728786988 43.6685751,0.0728786988 C43.0534958,0.0933813398 42.9099774,0.0933813398 42.2948981,0.134386622 C41.6798189,0.154889263 39.219502,0.154889263 38.6249254,0.154889263 C37.7638145,0.154889263 37.7023065,0.0933813398 37.6818039,1.13901603 C37.6407986,1.95912167 37.6613013,2.79972995 37.6613013,3.64033823 C37.6613013,5.0755231 37.5792907,10.221686 37.620296,11.3698339 L37.620296,11.3698339 Z M51.0966819,14.0351772 C51.0966819,13.5021086 51.0966819,10.1396754 51.1171845,9.8731411 C51.1376872,9.81163317 51.1786925,9.68861733 51.260703,9.68861733 C51.3427136,9.68861733 51.3837189,9.72962261 51.4042215,9.79113053 C52.2243272,11.3903365 52.9419196,12.9895425 53.6800147,14.5477432 C53.7825279,14.7732723 54.0080569,15.4293568 54.0695649,15.4908647 C54.1515754,15.6138806 54.2950939,15.5728753 54.4181097,15.5728753 L56.6734003,15.5933779 C56.9399346,15.5933779 57.0014425,15.4293568 56.9399346,15.2038278 C56.7759135,14.5887485 55.6072629,12.4154686 55.3407286,11.8823999 C55.1562048,11.4723471 53.9260464,9.09404074 53.8850411,8.90951697 C53.8440358,8.82750641 54.1515754,8.68398792 54.1925807,8.62248 C55.1767075,7.74086643 56.058321,6.83875023 56.2428448,5.46507328 C56.4478712,4.11189898 56.1403316,2.63570882 55.258718,1.54906885 C54.5821309,0.749465852 53.7005173,0.277905109 52.6548826,0.216397186 C52.0193008,0.175391904 51.4042215,0.236899827 50.7686397,0.216397186 C50.2150683,0.195894545 49.8255182,0.195894545 49.1284284,0.195894545 C48.8003861,0.195894545 48.5953597,0.380418314 48.5748571,0.728963211 L48.5748571,0.974994903 C48.5338518,2.55369826 48.5748571,4.13240162 48.5953597,5.69060233 C48.5953597,8.06890869 48.5543544,14.3427168 48.5543544,15.244833 C48.5543544,15.5113674 48.5953597,15.5728753 48.8413914,15.5728753 C48.9849099,15.5728753 49.148931,15.5933779 49.2924495,15.5933779 C49.8665234,15.5933779 50.2150683,15.5728753 50.8096449,15.5728753 C51.260703,15.5728753 51.0966819,14.8347802 51.0966819,14.0351772 Z M51.0966819,6.03914723 L51.1171845,3.96838049 C51.1376872,3.66084087 51.035174,3.04576164 51.322211,2.82023259 C51.7117611,2.53319562 52.5113641,2.82023259 52.859909,3.06626429 C53.8850411,3.76335408 53.8030305,5.48557592 53.2494592,6.44920005 C52.9829249,6.90025815 52.5318668,7.16679249 52.0193008,7.31031097 C51.7117611,7.39232154 51.1376872,7.49483474 51.1171845,7.00277136 C51.1171845,6.6747291 51.0966819,6.03914723 51.0966819,6.03914723 Z M63.1788882,15.4088542 C63.2403962,15.4293568 63.4249199,15.4293568 63.6094437,15.4293568 C64.0194965,15.4293568 64.1425124,13.9531667 64.1835177,13.645627 C64.2040203,13.3995954 64.2655282,13.3790927 64.4705546,13.3380874 C65.4956867,13.2150716 66.0082527,13.2970821 67.0333848,13.3175848 C67.2589138,13.3175848 67.3819297,13.420098 67.4434376,13.6046218 L67.5869561,14.0761825 C67.7099719,14.4247274 67.8124851,14.8552829 67.935501,15.2038278 C68.0175115,15.4498595 68.0380142,15.4293568 68.2840459,15.4293568 C68.6120881,15.4293568 69.8012413,15.4293568 70.1497862,15.4088542 C70.6213469,15.4088542 70.2933047,14.44523 70.2317968,14.2812089 C70.047273,13.707135 70.0062677,13.1125584 69.8217439,12.5384844 C69.7397334,12.2924527 67.4024323,1.20052395 67.2999191,0.585444724 C67.1564006,0.216397186 67.2794164,0.195894545 66.9513742,0.195894545 C66.2542844,0.195894545 65.5161893,0.236899827 64.7985969,0.195894545 C64.5115599,0.195894545 64.5320626,0.277905109 64.4910573,0.585444724 C64.450052,0.872481698 63.7119569,4.13240162 63.4249199,5.48557592 C63.0558724,7.18729513 62.7278301,8.82750641 62.3177773,10.508723 C62.1742588,11.1032996 61.1901321,15.3883515 61.3131479,15.4088542 C61.3746558,15.4498595 61.477169,15.4293568 61.5591796,15.4293568 C62.0717456,15.4293568 62.5433064,15.4293568 63.1788882,15.4088542 L63.1788882,15.4088542 Z M65.8647342,10.7547547 L65.4341788,10.7547547 C64.8601048,10.7547547 64.8396022,10.7547547 64.9831207,10.1601781 C65.0856339,9.70911997 65.6392052,7.26930569 65.762221,6.6747291 C65.7827237,6.63372382 65.8237289,6.59271854 65.8442316,6.59271854 C65.8852369,6.59271854 65.9262421,6.63372382 65.9467448,6.65422646 C66.0287553,6.90025815 66.1107659,7.51533738 66.1927765,7.76136907 C66.3773002,8.54046943 66.5003161,9.19655394 66.6848399,10.0371622 C66.8693636,10.7752573 66.7873531,10.7752573 66.4183055,10.7752573 C66.2337818,10.7752573 66.049258,10.7547547 65.8647342,10.7547547 L65.8647342,10.7547547 Z M77.3318613,13.3380874 C77.352364,13.9736693 77.352364,14.6092512 77.3728666,15.244833 C77.3728666,15.53187 77.3933693,15.5728753 77.6804062,15.5728753 L79.5256439,15.5728753 C79.9151941,15.5728753 79.8331835,14.9167908 79.8126809,14.5682459 L79.8741888,3.08676693 C79.8741888,2.77922731 79.976702,2.67671411 80.3867548,2.67671411 L82.1909873,2.67671411 C82.6215427,2.67671411 82.5190295,1.93861903 82.5190295,1.426053 C82.5190295,0.974994903 82.6830506,0.195894545 82.1909873,0.195894545 C81.8424424,0.195894545 78.5005119,0.195894545 77.1268349,0.216397186 C76.4502478,0.216397186 75.8966765,0.195894545 75.2200893,0.195894545 C74.7075233,0.195894545 74.7280259,0.605947365 74.7280259,1.50806357 C74.7280259,2.08213752 74.7075233,2.65621147 75.1995867,2.65621147 C75.4866236,2.65621147 76.6552742,2.65621147 76.9833164,2.67671411 C77.1883428,2.67671411 77.3318613,2.73822203 77.3728666,2.96375108 C77.3728666,3.025259 77.3933693,3.08676693 77.3933693,3.14827485 C77.3933693,4.624465 77.2908561,11.4928497 77.3318613,13.3380874 L77.3318613,13.3380874 Z M86.8922428,11.3698339 L86.8717402,11.3698339 C86.8717402,11.8823999 86.8512376,12.4154686 86.8717402,12.9485372 C86.8922428,13.6046218 86.9332481,14.2607063 86.9742534,14.9167908 C86.9742534,15.1423198 87.0357613,15.2038278 87.2407877,15.244833 C87.6713432,15.3473462 88.081396,15.3678489 88.5119515,15.3678489 C89.6190941,15.3268436 90.7262367,15.4088542 91.8333793,15.3678489 C92.2844374,15.3473462 92.4894638,15.3883515 92.9405219,15.306341 C93.3505747,15.2243304 93.4940932,14.9988013 93.4940932,14.3837221 C93.453088,13.9941719 93.4735906,13.8301508 93.4735906,13.3585901 C93.4735906,12.6820029 93.0020299,12.4564739 92.591977,12.4769765 C92.3049401,12.4974791 90.9312631,12.4564739 90.3776918,12.4564739 C89.455073,12.4769765 89.5985914,12.5999924 89.5985914,11.6363682 C89.5985914,10.8572679 89.6190941,9.85263846 89.6190941,9.05303546 C89.6190941,8.62248 89.6600994,8.47896151 90.0701522,8.47896151 L92.6329823,8.47896151 C93.0430351,8.54046943 93.3300721,8.25343246 93.3300721,7.822877 C93.3300721,7.39232154 93.3710774,7.3718189 93.3710774,6.94126343 L93.3095695,6.3261842 C93.2685642,5.97763931 93.1455483,5.85462346 92.7970034,5.85462346 C92.5714744,5.85462346 92.3459453,5.8751261 92.1204163,5.89562874 C91.2388027,5.95713667 90.8287499,5.83412082 89.967639,5.89562874 C89.680602,5.89562874 89.6395967,5.85462346 89.6190941,5.58808913 C89.5370835,4.78848613 89.6190941,3.90687257 89.7011046,3.10726957 C89.7216073,2.77922731 89.8036179,2.71771939 90.1111575,2.69721675 L93.0020299,2.67671411 C93.39158,2.63570882 93.5145959,2.65621147 93.4940932,2.26666129 C93.453088,1.6720847 93.5145959,1.05700547 93.453088,0.462428878 C93.4120827,0.134386622 93.3095695,0.0728786988 92.9405219,0.0728786988 C92.3254427,0.0933813398 92.1819242,0.0933813398 91.566845,0.134386622 C90.9517658,0.154889263 88.4914488,0.154889263 87.8968722,0.154889263 C87.0357613,0.154889263 86.9742534,0.0933813398 86.9537508,1.13901603 C86.9127455,1.95912167 86.9332481,2.79972995 86.9332481,3.64033823 C86.9332481,5.0755231 86.8512376,10.221686 86.8922428,11.3698339 Z M107.120148,15.4088542 C107.181656,15.4293568 107.36618,15.4293568 107.550704,15.4293568 C107.960757,15.4293568 108.083773,13.9531667 108.124778,13.645627 C108.14528,13.3995954 108.206788,13.3790927 108.411815,13.3380874 C109.436947,13.2150716 109.949513,13.2970821 110.974645,13.3175848 C111.200174,13.3175848 111.32319,13.420098 111.384698,13.6046218 L111.528216,14.0761825 C111.651232,14.4247274 111.753745,14.8552829 111.876761,15.2038278 C111.958772,15.4498595 111.979274,15.4293568 112.225306,15.4293568 C112.553348,15.4293568 113.742501,15.4293568 114.091046,15.4088542 C114.562607,15.4088542 114.234565,14.44523 114.173057,14.2812089 C113.988533,13.707135 113.947528,13.1125584 113.763004,12.5384844 C113.680994,12.2924527 111.343692,1.20052395 111.241179,0.585444724 C111.097661,0.216397186 111.220677,0.195894545 110.892634,0.195894545 C110.195545,0.195894545 109.45745,0.236899827 108.739857,0.195894545 C108.45282,0.195894545 108.473323,0.277905109 108.432317,0.585444724 C108.391312,0.872481698 107.653217,4.13240162 107.36618,5.48557592 C106.997133,7.18729513 106.66909,8.82750641 106.259038,10.508723 C106.115519,11.1032996 105.131392,15.3883515 105.254408,15.4088542 C105.315916,15.4498595 105.418429,15.4293568 105.50044,15.4293568 C106.013006,15.4293568 106.484567,15.4293568 107.120148,15.4088542 L107.120148,15.4088542 Z M109.805994,10.7547547 L109.375439,10.7547547 C108.801365,10.7547547 108.780862,10.7547547 108.924381,10.1601781 C109.026894,9.70911997 109.580465,7.26930569 109.703481,6.6747291 C109.723984,6.63372382 109.764989,6.59271854 109.785492,6.59271854 C109.826497,6.59271854 109.867502,6.63372382 109.888005,6.65422646 C109.970016,6.90025815 110.052026,7.51533738 110.134037,7.76136907 C110.31856,8.54046943 110.441576,9.19655394 110.6261,10.0371622 C110.810624,10.7752573 110.728613,10.7752573 110.359566,10.7752573 C110.175042,10.7752573 109.990518,10.7547547 109.805994,10.7547547 L109.805994,10.7547547 Z M128.619218,14.0351772 C128.619218,13.5021086 128.619218,10.1396754 128.63972,9.8731411 C128.660223,9.81163317 128.701228,9.68861733 128.783239,9.68861733 C128.865249,9.68861733 128.906255,9.72962261 128.926757,9.79113053 C129.746863,11.3903365 130.464455,12.9895425 131.202551,14.5477432 C131.305064,14.7732723 131.530593,15.4293568 131.592101,15.4908647 C131.674111,15.6138806 131.81763,15.5728753 131.940646,15.5728753 L134.195936,15.5933779 C134.46247,15.5933779 134.523978,15.4293568 134.46247,15.2038278 C134.298449,14.5887485 133.129799,12.4154686 132.863264,11.8823999 C132.678741,11.4723471 131.448582,9.09404074 131.407577,8.90951697 C131.366572,8.82750641 131.674111,8.68398792 131.715117,8.62248 C132.699243,7.74086643 133.580857,6.83875023 133.765381,5.46507328 C133.970407,4.11189898 133.662867,2.63570882 132.781254,1.54906885 C132.104667,0.749465852 131.223053,0.277905109 130.177419,0.216397186 C129.541837,0.175391904 128.926757,0.236899827 128.291176,0.216397186 C127.737604,0.195894545 127.348054,0.195894545 126.650964,0.195894545 C126.322922,0.195894545 126.117896,0.380418314 126.097393,0.728963211 L126.097393,0.974994903 C126.056388,2.55369826 126.097393,4.13240162 126.117896,5.69060233 C126.117896,8.06890869 126.07689,14.3427168 126.07689,15.244833 C126.07689,15.5113674 126.117896,15.5728753 126.363927,15.5728753 C126.507446,15.5728753 126.671467,15.5933779 126.814985,15.5933779 C127.389059,15.5933779 127.737604,15.5728753 128.332181,15.5728753 C128.783239,15.5728753 128.619218,14.8347802 128.619218,14.0351772 L128.619218,14.0351772 Z M128.619218,6.03914723 L128.63972,3.96838049 C128.660223,3.66084087 128.55771,3.04576164 128.844747,2.82023259 C129.234297,2.53319562 130.0339,2.82023259 130.382445,3.06626429 C131.407577,3.76335408 131.325566,5.48557592 130.771995,6.44920005 C130.505461,6.90025815 130.054403,7.16679249 129.541837,7.31031097 C129.234297,7.39232154 128.660223,7.49483474 128.63972,7.00277136 C128.63972,6.6747291 128.619218,6.03914723 128.619218,6.03914723 L128.619218,6.03914723 Z M138.835684,11.3698339 L138.815181,11.3698339 C138.815181,11.8823999 138.794679,12.4154686 138.815181,12.9485372 C138.835684,13.6046218 138.876689,14.2607063 138.917694,14.9167908 C138.917694,15.1423198 138.979202,15.2038278 139.184229,15.244833 C139.614784,15.3473462 140.024837,15.3678489 140.455392,15.3678489 C141.562535,15.3268436 142.669678,15.4088542 143.77682,15.3678489 C144.227878,15.3473462 144.432905,15.3883515 144.883963,15.306341 C145.294016,15.2243304 145.437534,14.9988013 145.437534,14.3837221 C145.396529,13.9941719 145.417032,13.8301508 145.417032,13.3585901 C145.417032,12.6820029 144.945471,12.4564739 144.535418,12.4769765 C144.248381,12.4974791 142.874704,12.4564739 142.321133,12.4564739 C141.398514,12.4769765 141.542032,12.5999924 141.542032,11.6363682 C141.542032,10.8572679 141.562535,9.85263846 141.562535,9.05303546 C141.562535,8.62248 141.60354,8.47896151 142.013593,8.47896151 L144.576423,8.47896151 C144.986476,8.54046943 145.273513,8.25343246 145.273513,7.822877 C145.273513,7.39232154 145.314518,7.3718189 145.314518,6.94126343 L145.25301,6.3261842 C145.212005,5.97763931 145.088989,5.85462346 144.740444,5.85462346 C144.514915,5.85462346 144.289386,5.8751261 144.063857,5.89562874 C143.182244,5.95713667 142.772191,5.83412082 141.91108,5.89562874 C141.624043,5.89562874 141.583038,5.85462346 141.562535,5.58808913 C141.480525,4.78848613 141.562535,3.90687257 141.644546,3.10726957 C141.665048,2.77922731 141.747059,2.71771939 142.054598,2.69721675 L144.945471,2.67671411 C145.335021,2.63570882 145.458037,2.65621147 145.437534,2.26666129 C145.396529,1.6720847 145.458037,1.05700547 145.396529,0.462428878 C145.355524,0.134386622 145.25301,0.0728786988 144.883963,0.0728786988 C144.268884,0.0933813398 144.125365,0.0933813398 143.510286,0.134386622 C142.895207,0.154889263 140.43489,0.154889263 139.840313,0.154889263 C138.979202,0.154889263 138.917694,0.0933813398 138.897192,1.13901603 C138.856186,1.95912167 138.876689,2.79972995 138.876689,3.64033823 C138.876689,5.0755231 138.794679,10.221686 138.835684,11.3698339 Z M157.868285,2.61520618 C157.888788,1.93861903 157.868285,1.38504772 157.868285,0.728963211 C157.868285,-0.0296345062 156.494609,0.0523760578 156.002545,0.0728786988 C153.808763,0.216397186 151.717493,1.61057677 150.712864,3.51732239 C150.425827,4.07089369 150.2208,4.64496764 150.077282,5.23954423 C149.728737,6.63372382 149.708234,8.10991397 149.872255,9.5245962 C150.015774,10.8572679 150.364319,12.1899395 151.184424,13.2560769 C152.599107,15.1218172 155.202942,15.7779017 157.43773,15.4293568 C157.540243,15.4088542 157.642756,15.3883515 157.724767,15.3268436 C157.786275,15.2858383 157.847783,15.2038278 157.847783,15.1218172 L157.909291,13.9531667 C157.929793,13.5841191 157.909291,13.6046218 157.909291,13.2355742 C157.909291,12.7435108 156.884159,13.1125584 156.248577,13.1125584 C155.633498,13.1125584 154.977413,13.0920557 154.423842,12.8050188 C153.439715,12.2514475 152.886144,11.1443048 152.578604,10.0986701 C152.230059,8.97102489 152.148049,7.76136907 152.353075,6.61322118 C152.599107,5.11652839 153.316699,3.39430654 154.895403,2.88174052 C155.797519,2.5742009 156.761143,2.67671411 157.663259,2.77922731 C157.786275,2.79972995 157.868285,2.71771939 157.868285,2.61520618 L157.868285,2.61520618 Z M173.046391,3.96838049 C173.476946,5.23954423 173.579459,6.61322118 173.579459,7.96639548 C173.579459,9.09404074 173.374433,10.1806807 173.087396,11.2673207 C172.718348,12.5589871 172.103269,13.7276376 170.996126,14.4862353 C170.176021,15.0808119 169.31491,15.4703621 168.310281,15.5728753 C168.166762,15.5728753 168.043746,15.5933779 167.900228,15.5933779 C167.777212,15.5933779 167.654196,15.5728753 167.510678,15.5728753 C166.506048,15.4703621 165.644937,15.0808119 164.804329,14.4862353 C163.717689,13.7276376 163.082107,12.5589871 162.733562,11.2673207 C162.426023,10.1806807 162.241499,9.09404074 162.241499,7.96639548 C162.241499,6.61322118 162.344012,5.23954423 162.774567,3.96838049 C163.533165,1.7745979 165.624435,0.216397186 167.900228,0.175391904 C170.176021,0.216397186 172.26729,1.7745979 173.046391,3.96838049 L173.046391,3.96838049 Z M171.057634,9.46308828 C171.262661,8.21242718 171.18065,6.94126343 170.934619,5.69060233 C170.688587,4.56295708 170.196523,3.45581446 169.253402,2.77922731 C169.089381,2.65621147 168.904857,2.55369826 168.720333,2.49219034 C168.453799,2.36917449 168.166762,2.32816921 167.900228,2.32816921 C167.633693,2.32816921 167.367159,2.36917449 167.100625,2.49219034 C166.895598,2.55369826 166.731577,2.65621147 166.567556,2.77922731 C165.603932,3.45581446 165.111869,4.56295708 164.886339,5.69060233 C164.640308,6.94126343 164.558297,8.21242718 164.763324,9.46308828 C164.96835,10.5907335 165.378403,12.107929 166.44454,12.6820029 C166.895598,12.9280346 167.387662,13.0920557 167.900228,13.1125584 C168.412794,13.0920557 168.92536,12.9280346 169.376418,12.6820029 C170.442555,12.107929 170.852608,10.5907335 171.057634,9.46308828 L171.057634,9.46308828 Z M180.453995,14.0351772 C180.453995,13.5021086 180.453995,10.1396754 180.474497,9.8731411 C180.495,9.81163317 180.536005,9.68861733 180.618016,9.68861733 C180.700026,9.68861733 180.741032,9.72962261 180.761534,9.79113053 C181.58164,11.3903365 182.299232,12.9895425 183.037328,14.5477432 C183.139841,14.7732723 183.36537,15.4293568 183.426878,15.4908647 C183.508888,15.6138806 183.652407,15.5728753 183.775423,15.5728753 L186.030713,15.5933779 C186.297247,15.5933779 186.358755,15.4293568 186.297247,15.2038278 C186.133226,14.5887485 184.964576,12.4154686 184.698041,11.8823999 C184.513518,11.4723471 183.283359,9.09404074 183.242354,8.90951697 C183.201349,8.82750641 183.508888,8.68398792 183.549894,8.62248 C184.53402,7.74086643 185.415634,6.83875023 185.600158,5.46507328 C185.805184,4.11189898 185.497644,2.63570882 184.616031,1.54906885 C183.939444,0.749465852 183.05783,0.277905109 182.012195,0.216397186 C181.376614,0.175391904 180.761534,0.236899827 180.125953,0.216397186 C179.572381,0.195894545 179.182831,0.195894545 178.485741,0.195894545 C178.157699,0.195894545 177.952673,0.380418314 177.93217,0.728963211 L177.93217,0.974994903 C177.891165,2.55369826 177.93217,4.13240162 177.952673,5.69060233 C177.952673,8.06890869 177.911667,14.3427168 177.911667,15.244833 C177.911667,15.5113674 177.952673,15.5728753 178.198704,15.5728753 C178.342223,15.5728753 178.506244,15.5933779 178.649762,15.5933779 C179.223836,15.5933779 179.572381,15.5728753 180.166958,15.5728753 C180.618016,15.5728753 180.453995,14.8347802 180.453995,14.0351772 Z M180.453995,6.03914723 L180.474497,3.96838049 C180.495,3.66084087 180.392487,3.04576164 180.679524,2.82023259 C181.069074,2.53319562 181.868677,2.82023259 182.217222,3.06626429 C183.242354,3.76335408 183.160343,5.48557592 182.606772,6.44920005 C182.340238,6.90025815 181.88918,7.16679249 181.376614,7.31031097 C181.069074,7.39232154 180.495,7.49483474 180.474497,7.00277136 C180.474497,6.6747291 180.453995,6.03914723 180.453995,6.03914723 Z M199.28157,11.8003894 C199.404586,11.533855 199.507099,11.2673207 199.609612,11.0007864 C199.835141,10.3447018 199.876147,9.66811469 199.937655,8.99152753 C200.06067,7.55634266 200.019665,6.10065515 199.650618,4.70647557 C199.199559,2.9227458 198.051412,1.28253452 196.32919,0.523936801 C195.550089,0.175391904 194.668476,0.134386622 193.827868,0.154889263 C192.946254,0.154889263 192.044138,0.113883981 191.162524,0.195894545 C190.916492,0.216397186 190.793477,0.339413032 190.752471,0.564942083 C190.711466,0.810973775 190.670461,1.05700547 190.670461,1.28253452 C190.711466,2.53319562 190.670461,6.24417364 190.711466,6.85925287 C190.731969,7.41282418 190.670461,8.08941133 190.670461,8.64298264 C190.690963,10.0166596 190.670461,11.4108392 190.670461,12.7845161 C190.670461,13.3585901 190.649958,13.9121614 190.649958,14.4862353 C190.649958,15.1013146 190.424429,15.3678489 192.105646,15.3678489 C193.602338,15.3678489 195.160539,15.244833 196.575221,14.7117644 C197.88739,14.2402036 198.707496,13.0305478 199.28157,11.8003894 L199.28157,11.8003894 Z M193.315301,9.66811469 L193.315301,7.20779777 C193.315301,5.64959705 193.356307,4.64496764 193.294799,3.33279862 L193.294799,3.08676693 C193.315301,2.65621147 193.376809,2.63570882 193.827868,2.63570882 C194.422444,2.61520618 194.853,2.75872467 195.365566,2.96375108 C195.878132,3.16877749 196.165169,3.61983559 196.431703,4.05039105 C196.944269,4.89099933 197.149295,5.81361818 197.190301,6.77724231 C197.210803,7.33081361 197.231306,7.88438492 197.231306,8.43795623 C197.231306,11.0622943 195.693608,12.8870293 194.340434,12.8870293 C193.438317,12.8870293 193.294799,12.9485372 193.294799,12.3539607 C193.294799,11.7388814 193.335804,11.1238022 193.335804,10.508723 C193.315301,10.2421886 193.315301,9.95515166 193.315301,9.66811469 L193.315301,9.66811469 Z" id="Shape"></path>
            </g>
        </g>
    </g>
</svg>