<?xml version="1.0" encoding="UTF-8"?>
<svg width="502px" height="502px" viewBox="0 0 502 502" version="1.1" xmlns="http://www.w3.org/2000/svg" xmlns:xlink="http://www.w3.org/1999/xlink">
    <title>Group 5</title>
    <g id="Page-1" stroke="none" stroke-width="1" fill="none" fill-rule="evenodd">
        <g id="Group-5" transform="translate(0.579104, 1.000000)">
            <rect id="Rectangle" stroke="#979797" fill="#6AB7EE" x="0" y="0" width="500" height="500"></rect>
            <g id="Group-4" transform="translate(22.420896, 10.000000)" fill-rule="nonzero">
                <g id="Group-2">
                    <g id="Group" transform="translate(43.605001, 0.000000)" fill="#F3F6F6">
                        <path d="M147.868825,0 C114.480609,0 87.7782747,26.616172 85.492335,59.8066027 C78.763966,61.4566466 72.3990836,64.0775666 66.7091946,67.7097052 C49.5719995,77.6192304 37.5390039,99.2493845 37.1305901,121.988981 C37.1438506,157.253378 65.4740054,186.062297 100.354252,186.062297 L142.519498,186.062297 L142.519498,223.34748 C142.519498,230.330603 137.099556,235.759714 130.126499,235.759714 L123.034406,235.759714 C120.250653,225.105437 110.613419,217.141363 99.1439989,217.141363 C85.5284842,217.141363 74.3579992,228.328509 74.3579992,241.96583 C74.3579992,255.60191 85.5284842,266.790301 99.1439989,266.790301 C110.605343,266.790301 120.242833,258.814432 123.034406,248.171947 L130.126499,248.171947 C143.75083,248.171947 154.912498,236.992248 154.912498,223.34748 L154.912498,111.637377 L142.519498,111.637377 L142.519498,173.650063 L100.354252,173.650063 C72.2537707,173.650063 49.5235875,150.622105 49.5235899,121.96474 C49.5198299,103.337627 59.2831009,86.8518966 74.1643586,77.7461579 C74.9941567,77.236884 75.8708759,76.8014628 76.7300962,76.3400877 C78.3331778,75.483147 79.9639244,74.6971672 81.6679333,74.0127926 C82.5282802,73.6654487 83.3993965,73.343103 84.2820805,73.0430869 C86.349974,72.3437196 88.486205,71.7782678 90.6722211,71.3461012 C93.8165172,70.7276492 97.0233472,70.3036721 100.354252,70.3036721 C115.066302,70.3036721 128.260819,76.6006242 137.557453,86.7401903 C143.117894,93.2725751 152.705156,84.4600009 146.682778,78.3522262 C135.155962,65.7798784 118.620664,57.8914385 100.354252,57.8914385 C99.4353113,57.8914385 98.553216,58.0458343 97.6432835,58.0853796 C100.590713,32.3235789 121.788823,12.4122374 147.868825,12.4122374 C172.256167,12.4246496 193.185887,29.9489784 197.779687,54.3762542 C198.577672,58.659757 203.418985,60.8077884 207.122856,58.5217466 C215.063683,53.6139494 224.146066,51.0065264 233.409561,51.0065264 C261.510205,51.0065264 284.240231,74.0102357 284.240231,102.667606 C284.240578,106.095008 287.014639,108.873375 290.436731,108.873723 C308.039066,108.873723 322.266329,123.259191 322.266404,141.261895 C322.266329,159.264598 308.039066,173.650067 290.436731,173.650067 L229.270498,173.650067 L229.270498,111.637381 L216.877498,111.637381 L216.877498,223.347484 C216.877498,236.992252 228.039166,248.171951 241.663497,248.171951 L248.75559,248.171951 C251.547163,258.814436 261.184653,266.790301 272.645997,266.790301 C286.261517,266.790301 297.431997,255.601914 297.431997,241.965834 C297.431997,228.328513 286.261517,217.141367 272.645997,217.141367 C261.176573,217.141367 251.539343,225.105441 248.75559,235.759717 L241.663497,235.759717 C234.69044,235.759717 229.270498,230.330606 229.270498,223.347484 L229.270498,186.062301 L290.436731,186.062301 C314.826861,186.062301 334.659403,165.882801 334.659403,141.261895 C334.659403,118.492893 317.455924,100.252644 295.616621,97.528159 C292.898823,64.7598634 266.497867,38.5942927 233.409561,38.5942927 C224.310348,38.5942927 215.859214,42.1218111 207.655358,45.9398141 C199.698966,19.22124 175.964512,0.0148984041 147.868825,0 L147.868825,0 Z M167.305498,86.8129098 L167.305498,198.523013 L179.698498,198.523013 L179.698498,86.8129098 L167.305498,86.8129098 Z M192.091498,86.8129098 L192.091498,198.523013 L204.484498,198.523013 L204.484498,86.8129098 L192.091498,86.8129098 Z M167.305498,210.935246 L167.305498,223.34748 L179.698498,223.34748 L179.698498,210.935246 L167.305498,210.935246 Z M192.091498,210.935246 L192.091498,223.34748 L204.484498,223.34748 L204.484498,210.935246 L192.091498,210.935246 Z M99.1439989,229.553597 C106.061878,229.553597 111.536999,235.037322 111.536999,241.96583 C111.536999,248.894339 106.061878,254.378064 99.1439989,254.378064 C92.2261198,254.378064 86.7509991,248.894339 86.7509991,241.96583 C86.7509991,235.037322 92.2261198,229.553597 99.1439989,229.553597 Z M272.645997,229.553597 C279.563881,229.553597 285.038997,235.037322 285.038997,241.96583 C285.038997,248.894339 279.563881,254.378064 272.645997,254.378064 C265.728113,254.378064 260.252997,248.894339 260.252997,241.96583 C260.252997,235.037322 265.728113,229.553597 272.645997,229.553597 Z M0,235.759714 L0,248.171947 L12.3929999,248.171947 L12.3929999,235.759714 L0,235.759714 Z M24.7859997,235.759714 L24.7859997,248.171947 L37.1789996,248.171947 L37.1789996,235.759714 L24.7859997,235.759714 Z M49.5719995,235.759714 L49.5719995,248.171947 L61.9649993,248.171947 L61.9649993,235.759714 L49.5719995,235.759714 Z M167.305498,235.759714 L167.305498,248.171947 L179.698498,248.171947 L179.698498,235.759714 L167.305498,235.759714 Z M192.091498,235.759714 L192.091498,248.171947 L204.484498,248.171947 L204.484498,235.759714 L192.091498,235.759714 Z M309.824997,235.759714 L309.824997,248.171947 L322.217997,248.171947 L322.217997,235.759714 L309.824997,235.759714 Z M334.610996,235.759714 L334.610996,248.171947 L347.003996,248.171947 L347.003996,235.759714 L334.610996,235.759714 Z M359.396996,235.759714 L359.396996,248.171947 L371.789996,248.171947 L371.789996,235.759714 L359.396996,235.759714 Z M167.305498,260.584181 L167.305498,272.996415 L179.698498,272.996415 L179.698498,260.584181 L167.305498,260.584181 Z M192.091498,260.584181 L192.091498,272.996415 L204.484498,272.996415 L204.484498,260.584181 L192.091498,260.584181 Z M167.305498,285.408648 L167.305498,297.820882 L179.698498,297.820882 L179.698498,285.408648 L167.305498,285.408648 Z M192.091498,285.408648 L192.091498,297.820882 L204.484498,297.820882 L204.484498,285.408648 L192.091498,285.408648 Z" id="Shape"></path>
                    </g>
                    <g id="SvgjsG1602" transform="translate(0.000001, 311.566461)" fill="#FFFFFF">
                        <path d="M42.0271492,1.46346332 C53.1040723,1.46346332 61.4117646,4.55299701 66.9502261,10.5694573 C71.8371039,15.9354895 74.2805428,23.9032343 74.2805428,33.6596565 L74.2805428,76.750521 C74.2805428,96.4259724 62.8778279,108.784107 42.0271492,108.784107 L1.30316742,108.784107 C0.488687782,108.784107 0,108.133679 0,107.320644 L0,2.92692665 C0,2.11389147 0.488687782,1.46346332 1.30316742,1.46346332 L42.0271492,1.46346332 L42.0271492,1.46346332 Z M52.9411763,71.8723099 L52.9411763,38.5378675 C52.9411763,28.2936243 47.5656107,21.7893428 36.1628958,21.7893428 L21.5022624,21.7893428 L21.5022624,88.4582276 L36.1628958,88.4582276 C45.9366515,88.4582276 52.9411763,82.1165532 52.9411763,71.8723099 Z M9.93665156,11.3824925 L9.93665156,98.8650779 C9.93665156,99.5155061 10.5882353,99.6781131 10.9140271,99.6781131 L37.4660633,99.6781131 C56.1990949,99.6781131 64.6696831,88.4582276 64.6696831,78.0513773 L64.6696831,36.4239761 C64.6696831,19.1876303 55.5475112,10.4068503 36.9773755,10.4068503 L10.9140271,10.4068503 C10.5882353,10.4068503 9.93665156,10.5694573 9.93665156,11.3824925 Z M62.714932,36.4239761 L62.714932,78.0513773 C62.714932,91.0599402 49.6832578,97.8894357 37.4660633,97.8894357 L11.8914027,97.8894357 L11.8914027,12.5207418 L36.9773755,12.5207418 C54.0814478,12.5207418 62.714932,20.1632725 62.714932,36.4239761 Z M175.316742,1.46346332 C186.393665,1.46346332 194.701357,4.55299701 200.239818,10.5694573 C205.126696,15.9354895 207.570135,23.9032343 207.570135,33.6596565 L207.570135,76.750521 C207.570135,96.4259724 196.16742,108.784107 175.316742,108.784107 L134.59276,108.784107 C133.77828,108.784107 133.289592,108.133679 133.289592,107.320644 L133.289592,2.92692665 C133.289592,2.11389147 133.77828,1.46346332 134.59276,1.46346332 L175.316742,1.46346332 L175.316742,1.46346332 Z M186.230769,71.8723099 L186.230769,38.5378675 C186.230769,28.2936243 180.855203,21.7893428 169.452488,21.7893428 L154.791855,21.7893428 L154.791855,88.4582276 L169.452488,88.4582276 C179.226244,88.4582276 186.230769,82.1165532 186.230769,71.8723099 Z M143.226244,11.3824925 L143.226244,98.8650779 C143.226244,99.5155061 143.877828,99.6781131 144.20362,99.6781131 L170.755656,99.6781131 C189.488687,99.6781131 197.959276,88.4582276 197.959276,78.0513773 L197.959276,36.4239761 C197.959276,19.1876303 188.837104,10.4068503 170.266968,10.4068503 L144.20362,10.4068503 C143.877828,10.4068503 143.226244,10.5694573 143.226244,11.3824925 L143.226244,11.3824925 Z M196.004524,36.4239761 L196.004524,78.0513773 C196.004524,91.0599402 182.97285,97.8894357 170.755656,97.8894357 L145.180995,97.8894357 L145.180995,12.5207418 L170.266968,12.5207418 C187.37104,12.5207418 196.004524,20.1632725 196.004524,36.4239761 L196.004524,36.4239761 Z M311.049773,2.92692665 C311.049773,2.11389147 311.701357,1.46346332 312.515836,1.46346332 L331.248868,1.46346332 C332.063348,1.46346332 332.714931,2.11389147 332.714931,2.92692665 L332.714931,107.320644 C332.714931,108.133679 332.063348,108.784107 331.248868,108.784107 L313.16742,108.784107 C312.515836,108.784107 311.864253,108.458893 311.701357,107.971072 L287.918551,54.4733571 L287.918551,107.320644 C287.918551,108.133679 287.266968,108.784107 286.452488,108.784107 L267.882352,108.784107 C267.067873,108.784107 266.579185,108.133679 266.579185,107.320644 L266.579185,2.92692665 C266.579185,2.11389147 267.067873,1.46346332 267.882352,1.46346332 L287.104072,1.46346332 C287.755655,1.46346332 288.081447,1.95128443 288.244343,2.2764985 L311.049773,54.7985712 L311.049773,2.92692665 L311.049773,2.92692665 Z M322.77828,99.027685 L322.77828,11.2198855 C322.77828,10.0816362 320.660633,9.75642216 320.660633,11.2198855 L320.660633,94.799902 L278.144796,10.8946714 C277.656108,10.2442433 276.35294,10.2442433 276.35294,11.2198855 L276.35294,98.8650779 C276.35294,100.328541 278.307692,100.328541 278.307692,98.8650779 L278.307692,15.4476684 L320.660633,99.190292 C321.312216,100.328541 322.77828,100.003327 322.77828,99.027685 L322.77828,99.027685 Z M430.493212,42.9282575 C442.873302,48.7821108 458.999999,58.0507119 458.999999,74.7992366 C458.999999,79.6774477 458.185519,89.1086558 452.809954,97.0764005 C446.782804,106.019788 437.334841,110.410177 424.303166,110.410177 C410.457013,110.410177 394.330316,103.743289 389.280542,88.6208347 C389.117646,88.1330135 389.280542,87.6451924 389.76923,87.3199784 L404.755655,74.4740225 C405.407239,73.9862014 406.384614,73.9862014 406.873302,74.7992366 C407.199094,75.6122718 407.850678,76.9131281 408.665157,78.5391984 C411.108596,83.5800165 416.97285,88.6208347 423.488687,88.6208347 C428.53846,88.6208347 435.380089,85.856515 435.380089,78.0513773 C435.380089,70.5714537 425.117646,66.3436707 418.764705,63.9045652 C411.434388,60.9776385 403.941175,57.2376767 397.588234,51.7090375 C390.909501,45.5299701 387.651583,38.7004746 387.651583,30.5701228 C387.651583,10.2442433 406.384614,0 424.14027,0 C438.14932,0 448.574659,7.31731662 455.416288,21.7893428 C455.74208,22.439771 455.416288,23.2528062 454.927601,23.5780202 L440.429863,33.6596565 C439.778279,33.9848705 439.452488,33.9848705 438.800904,33.1718354 C433.262442,25.2040906 428.375565,21.4641288 421.859727,21.4641288 C418.438913,21.4641288 410.457013,22.764985 410.457013,28.7814454 C410.457013,36.098762 423.977374,39.8387238 430.493212,42.9282575 L430.493212,42.9282575 Z M400.846153,87.8077995 C404.918551,95.9381513 416.15837,100.653755 425.280542,100.653755 C437.171945,100.653755 446.782804,92.5234035 448.085972,80.1652688 C449.714931,65.0428144 437.823528,58.538533 426.095022,52.6846797 L420.882352,50.4081812 C408.828053,45.042149 400.031673,40.9769731 400.031673,29.7570876 C400.031673,17.3989529 411.434388,11.7077066 422.674207,11.7077066 C432.93665,11.7077066 438.312216,17.7241669 441.081447,21.4641288 C442.058822,22.764985 443.687782,21.6267358 442.710406,20.3258795 C439.941175,16.9111318 434.076922,9.75642216 422.674207,9.75642216 C409.805429,9.75642216 398.076922,16.0980966 398.076922,29.7570876 C398.076922,41.9526153 407.850678,46.6682193 420.230768,52.3594656 L425.280542,54.7985712 C441.407239,62.4411018 447.271492,69.5958114 445.968325,80.0026617 C443.524886,96.5885794 430.819003,98.7024709 425.280542,98.7024709 C413.063347,98.7024709 404.918551,91.3851543 402.475112,86.8321573 C401.660632,86.0191221 400.520361,86.8321573 400.846153,87.8077995 L400.846153,87.8077995 Z" id="Shape"></path>
                    </g>
                    <g id="SvgjsG1603" transform="translate(0.000000, 435.276665)" fill="#FFFFFF">
                        <path d="M21.0329416,27.7853861 C21.0799951,30.0399515 21.0329416,32.341487 20.8917809,34.5960524 C20.8917809,34.7839329 20.7506202,34.9718133 20.6094595,35.0657536 C20.4212453,35.2066639 20.1859775,35.3006041 19.9507097,35.3006041 C17.0333889,35.7703053 13.5043719,36.0051558 10.6811583,35.0657536 C4.32892758,32.9051284 0,25.8126414 0,17.6868119 C0,8.90340091 6.30517712,0.354840437 15.4806214,0.0260496497 C16.704014,-0.0209204628 20.8917809,-0.208800913 20.7506202,1.85788404 C20.6565131,3.36092764 20.7976738,4.58215056 20.7506202,6.13216427 C20.7506202,6.41398495 20.562406,6.6018654 20.2800846,6.55489529 C17.5980317,6.2261045 14.5395502,5.38064247 11.9516044,6.6018654 C9.7871406,7.63520787 8.28142667,9.84280316 7.43446257,12.0034283 C5.92874864,15.5731569 6.25812356,19.7065268 7.29330189,23.3701956 C8.09321242,26.2823425 9.83419417,29.7111607 13.3161576,29.805101 C13.5043719,29.8520711 15.2924072,29.9460113 15.2924072,29.7581309 L15.1512465,23.7459565 C15.104193,23.4641358 15.104193,23.1823151 15.0571394,22.9004944 C15.0100858,22.6186738 14.8218716,22.5247335 14.5395502,22.4777634 C13.7866933,22.4777634 13.7866933,22.4307933 13.0338363,22.4307933 C11.2928545,22.4307933 11.669283,21.2565405 11.6222295,20.8807796 C11.5751759,20.1762279 11.6222295,19.5186463 11.5751759,18.8140946 C11.5281223,18.1565131 11.7163366,17.6398418 12.3750864,17.5459016 L12.9397292,17.5459016 C15.3865143,17.4049913 17.880353,17.5928717 20.4682989,17.5928717 C20.8447273,17.5928717 21.0329416,18.0625728 21.0329416,18.4853039 C21.0799951,18.955005 21.0799951,19.2837958 21.0799951,19.7534969 C21.2211558,22.0550324 20.9388345,24.403538 20.985888,26.7050735 C21.0329416,27.0808344 21.0329416,27.4096252 21.0329416,27.7853861 L21.0329416,27.7853861 Z M31.1165196,26.047492 L31.0694661,26.047492 C31.0694661,27.2217448 31.0224125,28.4429677 31.0694661,29.6641906 C31.1165196,31.1672342 31.2106267,32.6702778 31.3047339,34.1733214 C31.3047339,34.6899927 31.4458945,34.830903 31.9164302,34.9248432 C32.9045549,35.1596938 33.8456261,35.2066639 34.8337509,35.2066639 C37.3746432,35.1127237 39.9155355,35.3006041 42.4564277,35.2066639 C43.4916061,35.1596938 43.9621417,35.253634 44.99732,35.0657536 C45.9383912,34.8778731 46.2677661,34.3612019 46.2677661,32.9520985 C46.173659,32.0596664 46.2207126,31.6839055 46.2207126,30.6035929 C46.2207126,29.0535792 45.1384807,28.5369079 44.1974095,28.583878 C43.5386596,28.6308482 40.3860711,28.5369079 39.1156249,28.5369079 C36.9982147,28.583878 37.3275896,28.8656987 37.3275896,26.6581034 C37.3275896,24.8732392 37.3746432,22.5717036 37.3746432,20.7398693 C37.3746432,19.7534969 37.4687503,19.4247061 38.4098215,19.4247061 L44.2915166,19.4247061 C45.2325878,19.5656164 45.8913377,18.9080349 45.8913377,17.9216625 C45.8913377,16.9352901 45.9854448,16.88832 45.9854448,15.9019477 L45.8442841,14.4928443 C45.750177,13.6943524 45.4678556,13.4125317 44.6679451,13.4125317 C44.1503559,13.4125317 43.6327667,13.4595018 43.1151776,13.5064719 C41.0918745,13.6473823 40.1508033,13.3655616 38.1745537,13.5064719 C37.5158039,13.5064719 37.4216967,13.4125317 37.3746432,12.8019202 C37.1864289,10.9700859 37.3746432,8.95037102 37.5628574,7.11853664 C37.609911,6.36701484 37.7981252,6.2261045 38.5039286,6.17913439 L45.1384807,6.13216427 C46.0324983,6.03822405 46.3148197,6.08519416 46.2677661,5.19276202 C46.173659,3.83062876 46.3148197,2.42152539 46.173659,1.05939212 C46.0795519,0.307870325 45.8442841,0.166959987 44.99732,0.166959987 C43.5857132,0.2139301 43.2563383,0.2139301 41.8447314,0.307870325 C40.4331246,0.354840437 34.7866974,0.354840437 33.4221441,0.354840437 C31.4458945,0.354840437 31.3047339,0.2139301 31.2576803,2.60940584 C31.1635732,4.48821034 31.2106267,6.41398495 31.2106267,8.33975956 C31.2106267,11.6276674 31.0224125,23.4171657 31.1165196,26.047492 L31.1165196,26.047492 Z M76.2550003,1.52909325 C76.396161,2.18667482 76.3020539,33.4687697 76.3020539,34.2672617 C76.3020539,35.676365 75.7844647,35.6293949 74.8433935,35.6293949 C73.4317867,35.6293949 71.4555371,35.8642455 71.0320551,35.3945444 C70.6556266,35.0657536 63.6916996,18.2974234 62.7035749,16.1837683 C62.6094677,15.9958879 62.3741999,15.5261868 62.1859857,15.620127 C61.9507179,15.7140672 62.044825,16.042858 62.044825,16.2307385 C61.9977714,17.8746924 62.2800928,32.0596664 62.2800928,34.3142318 C62.2800928,35.4415145 62.2330392,35.6293949 61.291968,35.6293949 L58.93929,35.6293949 C58.3275937,35.6293949 57.5747367,35.5824248 56.9630405,35.676365 C56.4925049,35.676365 56.2572371,35.5354547 56.2101835,35.0657536 L56.2101835,31.3551147 C56.3042906,27.4096252 56.2101835,4.01850921 56.2101835,2.28061505 C56.2101835,0.77757145 56.6336655,0.495750775 58.1393795,0.495750775 C59.1745578,0.448780662 60.2097361,0.448780662 61.2449145,0.448780662 C61.5742894,0.448780662 61.7625036,0.495750775 61.9507179,0.918481787 C63.221164,3.87759887 68.6323235,17.4519614 69.4792876,19.0959153 C69.6204483,19.4247061 70.1380374,20.7398693 70.4203588,20.8807796 L70.4674124,20.8807796 C70.6556266,20.6928991 70.608573,19.7534969 70.608573,19.4716762 C70.608573,18.7671245 70.2321446,2.28061505 70.2321446,1.95182426 C70.2321446,1.48212314 70.0909839,1.05939212 70.3262517,0.730601337 C70.4674124,0.542720887 71.0791086,0.495750775 71.3143764,0.448780662 C72.6318761,0.354840437 74.1846436,0.495750775 75.5021433,0.448780662 C76.1608932,0.448780662 76.1138396,0.918481787 76.2550003,1.52909325 L76.2550003,1.52909325 Z M86.3385783,26.047492 L86.2915248,26.047492 C86.2915248,27.2217448 86.2444712,28.4429677 86.2915248,29.6641906 C86.3385783,31.1672342 86.4326855,32.6702778 86.5267926,34.1733214 C86.5267926,34.6899927 86.6679533,34.830903 87.1384889,34.9248432 C88.1266136,35.1596938 89.0676849,35.2066639 90.0558096,35.2066639 C92.5967019,35.1127237 95.1375942,35.3006041 97.6784864,35.2066639 C98.7136648,35.1596938 99.1842004,35.253634 100.219379,35.0657536 C101.16045,34.8778731 101.489825,34.3612019 101.489825,32.9520985 C101.395718,32.0596664 101.442771,31.6839055 101.442771,30.6035929 C101.442771,29.0535792 100.360539,28.5369079 99.4194682,28.583878 C98.7607183,28.6308482 95.6081298,28.5369079 94.3376836,28.5369079 C92.2202734,28.583878 92.5496483,28.8656987 92.5496483,26.6581034 C92.5496483,24.8732392 92.5967019,22.5717036 92.5967019,20.7398693 C92.5967019,19.7534969 92.690809,19.4247061 93.6318802,19.4247061 L99.5135753,19.4247061 C100.454647,19.5656164 101.113396,18.9080349 101.113396,17.9216625 C101.113396,16.9352901 101.207503,16.88832 101.207503,15.9019477 L101.066343,14.4928443 C100.972236,13.6943524 100.689914,13.4125317 99.8900038,13.4125317 C99.3724146,13.4125317 98.8548255,13.4595018 98.3372363,13.5064719 C96.3139332,13.6473823 95.372862,13.3655616 93.3966124,13.5064719 C92.7378626,13.5064719 92.6437555,13.4125317 92.5967019,12.8019202 C92.4084877,10.9700859 92.5967019,8.95037102 92.7849161,7.11853664 C92.8319697,6.36701484 93.0201839,6.2261045 93.7259874,6.17913439 L100.360539,6.13216427 C101.254557,6.03822405 101.536878,6.08519416 101.489825,5.19276202 C101.395718,3.83062876 101.536878,2.42152539 101.395718,1.05939212 C101.301611,0.307870325 101.066343,0.166959987 100.219379,0.166959987 C98.8077719,0.2139301 98.478397,0.2139301 97.0667902,0.307870325 C95.6551833,0.354840437 90.0087561,0.354840437 88.6442028,0.354840437 C86.6679533,0.354840437 86.5267926,0.2139301 86.479739,2.60940584 C86.3856319,4.48821034 86.4326855,6.41398495 86.4326855,8.33975956 C86.4326855,11.6276674 86.2444712,23.4171657 86.3385783,26.047492 L86.3385783,26.047492 Z M117.266884,32.1536066 C117.266884,30.9323837 117.266884,23.2292852 117.313937,22.6186738 C117.360991,22.4777634 117.455098,22.1959427 117.643312,22.1959427 C117.831526,22.1959427 117.925634,22.289883 117.972687,22.4307933 C119.85483,26.0944621 121.501704,29.7581309 123.195632,33.3278594 C123.4309,33.8445306 123.948489,35.3475742 124.08965,35.4884846 C124.277864,35.7703053 124.607239,35.676365 124.889561,35.676365 L130.065452,35.7233351 C130.677148,35.7233351 130.818309,35.3475742 130.677148,34.830903 C130.30072,33.4217996 127.618667,28.4429677 127.006971,27.2217448 C126.583489,26.2823425 123.760275,20.8338095 123.666168,20.4110785 C123.572061,20.223198 124.277864,19.8944072 124.371971,19.7534969 C126.630542,17.7337821 128.653845,15.6670971 129.077327,12.5200996 C129.547863,9.42007215 128.84206,6.03822405 126.818757,3.54880809 C125.265989,1.7169737 123.242686,0.636661112 120.842954,0.495750775 C119.384294,0.40181055 117.972687,0.542720887 116.514027,0.495750775 C115.243581,0.448780662 114.349563,0.448780662 112.749742,0.448780662 C111.996885,0.448780662 111.526349,0.871511675 111.479296,1.67000359 L111.479296,2.23364494 C111.385189,5.8503436 111.479296,9.46704226 111.526349,13.0367708 C111.526349,18.4853039 111.432242,32.8581583 111.432242,34.9248432 C111.432242,35.5354547 111.526349,35.676365 112.090992,35.676365 C112.420367,35.676365 112.796795,35.7233351 113.12617,35.7233351 C114.44367,35.7233351 115.243581,35.676365 116.608134,35.676365 C117.643312,35.676365 117.266884,33.985441 117.266884,32.1536066 Z M117.266884,13.8352627 L117.313937,9.09128136 C117.360991,8.38672967 117.125723,6.9776263 117.784473,6.46095506 C118.678491,5.80337349 120.513579,6.46095506 121.31349,7.02459641 C123.666168,8.62158024 123.477954,12.5670697 122.207508,14.774665 C121.595811,15.8080074 120.560633,16.4186189 119.384294,16.7474097 C118.678491,16.9352901 117.360991,17.1701407 117.313937,16.042858 C117.313937,15.2913362 117.266884,13.8352627 117.266884,13.8352627 Z M144.995547,35.3006041 C145.136708,35.3475742 145.56019,35.3475742 145.983672,35.3475742 C146.924743,35.3475742 147.207064,31.9657261 147.301171,31.2611745 C147.348225,30.6975331 147.489386,30.650563 147.959921,30.5566228 C150.312599,30.2748021 151.488938,30.4626825 153.841616,30.5096527 C154.359206,30.5096527 154.641527,30.7445032 154.782688,31.1672342 L155.112063,32.2475468 C155.394384,33.0460387 155.629652,34.0324111 155.911973,34.830903 C156.100187,35.3945444 156.147241,35.3475742 156.711884,35.3475742 C157.464741,35.3475742 160.193847,35.3475742 160.993758,35.3006041 C162.075989,35.3006041 161.323133,33.0930088 161.181972,32.7172479 C160.75849,31.4020848 160.664383,30.0399515 160.240901,28.7247884 C160.052686,28.161147 154.68858,2.75031617 154.453313,1.3412128 C154.123938,0.495750775 154.406259,0.448780662 153.653402,0.448780662 C152.053581,0.448780662 150.359653,0.542720887 148.712778,0.448780662 C148.054028,0.448780662 148.101082,0.636661112 148.006975,1.3412128 C147.912868,1.99879437 146.21894,9.46704226 145.56019,12.5670697 C144.713226,16.465589 143.960369,20.223198 143.019297,24.0747472 C142.689923,25.4368805 140.431352,35.253634 140.713673,35.3006041 C140.854834,35.3945444 141.090101,35.3475742 141.278316,35.3475742 C142.454655,35.3475742 143.536887,35.3475742 144.995547,35.3006041 L144.995547,35.3006041 Z M151.159563,24.6383886 L150.171439,24.6383886 C148.853939,24.6383886 148.806885,24.6383886 149.13626,23.2762553 C149.371528,22.2429129 150.641974,16.6534695 150.924296,15.2913362 C150.971349,15.197396 151.065456,15.1034558 151.11251,15.1034558 C151.206617,15.1034558 151.300724,15.197396 151.347778,15.2443661 C151.535992,15.8080074 151.724206,17.2171108 151.91242,17.7807522 C152.335902,19.5656164 152.618224,21.06866 153.041706,22.9944347 C153.465188,24.6853587 153.276974,24.6853587 152.43001,24.6853587 C152.006528,24.6853587 151.583045,24.6383886 151.159563,24.6383886 L151.159563,24.6383886 Z M177.47662,30.5566228 C177.523673,32.0126963 177.523673,33.4687697 177.570727,34.9248432 C177.570727,35.5824248 177.617781,35.676365 178.27653,35.676365 L182.511351,35.676365 C183.405369,35.676365 183.217154,34.1733214 183.170101,33.3748295 L183.311261,7.07156652 C183.311261,6.36701484 183.546529,6.13216427 184.4876,6.13216427 L188.628314,6.13216427 C189.616439,6.13216427 189.381171,4.44124022 189.381171,3.26698741 C189.381171,2.23364494 189.757599,0.448780662 188.628314,0.448780662 C187.828403,0.448780662 180.158673,0.448780662 177.006084,0.495750775 C175.453317,0.495750775 174.182871,0.448780662 172.630103,0.448780662 C171.453764,0.448780662 171.500818,1.38818291 171.500818,3.45486786 C171.500818,4.77003101 171.453764,6.08519416 172.58305,6.08519416 C173.241799,6.08519416 175.923852,6.08519416 176.676709,6.13216427 C177.147245,6.13216427 177.47662,6.27307461 177.570727,6.78974585 C177.570727,6.93065619 177.617781,7.07156652 177.617781,7.21247686 C177.617781,10.594325 177.382513,26.3293126 177.47662,30.5566228 L177.47662,30.5566228 Z M199.417695,26.047492 L199.370642,26.047492 C199.370642,27.2217448 199.323588,28.4429677 199.370642,29.6641906 C199.417695,31.1672342 199.511802,32.6702778 199.605909,34.1733214 C199.605909,34.6899927 199.74707,34.830903 200.217606,34.9248432 C201.20573,35.1596938 202.146802,35.2066639 203.134926,35.2066639 C205.675819,35.1127237 208.216711,35.3006041 210.757603,35.2066639 C211.792782,35.1596938 212.263317,35.253634 213.298496,35.0657536 C214.239567,34.8778731 214.568942,34.3612019 214.568942,32.9520985 C214.474835,32.0596664 214.521888,31.6839055 214.521888,30.6035929 C214.521888,29.0535792 213.439656,28.5369079 212.498585,28.583878 C211.839835,28.6308482 208.687247,28.5369079 207.4168,28.5369079 C205.29939,28.583878 205.628765,28.8656987 205.628765,26.6581034 C205.628765,24.8732392 205.675819,22.5717036 205.675819,20.7398693 C205.675819,19.7534969 205.769926,19.4247061 206.710997,19.4247061 L212.592692,19.4247061 C213.533763,19.5656164 214.192513,18.9080349 214.192513,17.9216625 C214.192513,16.9352901 214.28662,16.88832 214.28662,15.9019477 L214.14546,14.4928443 C214.051353,13.6943524 213.769031,13.4125317 212.969121,13.4125317 C212.451531,13.4125317 211.933942,13.4595018 211.416353,13.5064719 C209.39305,13.6473823 208.451979,13.3655616 206.475729,13.5064719 C205.816979,13.5064719 205.722872,13.4125317 205.675819,12.8019202 C205.487604,10.9700859 205.675819,8.95037102 205.864033,7.11853664 C205.911087,6.36701484 206.099301,6.2261045 206.805104,6.17913439 L213.439656,6.13216427 C214.333674,6.03822405 214.615995,6.08519416 214.568942,5.19276202 C214.474835,3.83062876 214.615995,2.42152539 214.474835,1.05939212 C214.380727,0.307870325 214.14546,0.166959987 213.298496,0.166959987 C211.886889,0.2139301 211.557514,0.2139301 210.145907,0.307870325 C208.7343,0.354840437 203.087873,0.354840437 201.72332,0.354840437 C199.74707,0.354840437 199.605909,0.2139301 199.558856,2.60940584 C199.464749,4.48821034 199.511802,6.41398495 199.511802,8.33975956 C199.511802,11.6276674 199.323588,23.4171657 199.417695,26.047492 Z M245.840738,35.3006041 C245.981899,35.3475742 246.405381,35.3475742 246.828863,35.3475742 C247.769934,35.3475742 248.052255,31.9657261 248.146363,31.2611745 C248.193416,30.6975331 248.334577,30.650563 248.805112,30.5566228 C251.15779,30.2748021 252.334129,30.4626825 254.686807,30.5096527 C255.204397,30.5096527 255.486718,30.7445032 255.627879,31.1672342 L255.957254,32.2475468 C256.239575,33.0460387 256.474843,34.0324111 256.757164,34.830903 C256.945378,35.3945444 256.992432,35.3475742 257.557075,35.3475742 C258.309932,35.3475742 261.039038,35.3475742 261.838949,35.3006041 C262.921181,35.3006041 262.168324,33.0930088 262.027163,32.7172479 C261.603681,31.4020848 261.509574,30.0399515 261.086092,28.7247884 C260.897877,28.161147 255.533772,2.75031617 255.298504,1.3412128 C254.969129,0.495750775 255.25145,0.448780662 254.498593,0.448780662 C252.898772,0.448780662 251.204844,0.542720887 249.557969,0.448780662 C248.89922,0.448780662 248.946273,0.636661112 248.852166,1.3412128 C248.758059,1.99879437 247.064131,9.46704226 246.405381,12.5670697 C245.558417,16.465589 244.80556,20.223198 243.864489,24.0747472 C243.535114,25.4368805 241.276543,35.253634 241.558864,35.3006041 C241.700025,35.3945444 241.935293,35.3475742 242.123507,35.3475742 C243.299846,35.3475742 244.382078,35.3475742 245.840738,35.3006041 L245.840738,35.3006041 Z M252.004755,24.6383886 L251.01663,24.6383886 C249.69913,24.6383886 249.652076,24.6383886 249.981451,23.2762553 C250.216719,22.2429129 251.487165,16.6534695 251.769487,15.2913362 C251.81654,15.197396 251.910647,15.1034558 251.957701,15.1034558 C252.051808,15.1034558 252.145915,15.197396 252.192969,15.2443661 C252.381183,15.8080074 252.569397,17.2171108 252.757611,17.7807522 C253.181094,19.5656164 253.463415,21.06866 253.886897,22.9944347 C254.310379,24.6853587 254.122165,24.6853587 253.275201,24.6853587 C252.851719,24.6853587 252.428237,24.6383886 252.004755,24.6383886 L252.004755,24.6383886 Z M295.181102,32.1536066 C295.181102,30.9323837 295.181102,23.2292852 295.228155,22.6186738 C295.275209,22.4777634 295.369316,22.1959427 295.55753,22.1959427 C295.745744,22.1959427 295.839852,22.289883 295.886905,22.4307933 C297.769048,26.0944621 299.415922,29.7581309 301.10985,33.3278594 C301.345118,33.8445306 301.862707,35.3475742 302.003868,35.4884846 C302.192082,35.7703053 302.521457,35.676365 302.803779,35.676365 L307.97967,35.7233351 C308.591366,35.7233351 308.732527,35.3475742 308.591366,34.830903 C308.214938,33.4217996 305.532885,28.4429677 304.921189,27.2217448 C304.497707,26.2823425 301.674493,20.8338095 301.580386,20.4110785 C301.486279,20.223198 302.192082,19.8944072 302.286189,19.7534969 C304.54476,17.7337821 306.568063,15.6670971 306.991545,12.5200996 C307.462081,9.42007215 306.756278,6.03822405 304.732975,3.54880809 C303.180207,1.7169737 301.156904,0.636661112 298.757172,0.495750775 C297.298512,0.40181055 295.886905,0.542720887 294.428245,0.495750775 C293.157799,0.448780662 292.263781,0.448780662 290.66396,0.448780662 C289.911103,0.448780662 289.440567,0.871511675 289.393514,1.67000359 L289.393514,2.23364494 C289.299407,5.8503436 289.393514,9.46704226 289.440567,13.0367708 C289.440567,18.4853039 289.34646,32.8581583 289.34646,34.9248432 C289.34646,35.5354547 289.440567,35.676365 290.00521,35.676365 C290.334585,35.676365 290.711013,35.7233351 291.040388,35.7233351 C292.357888,35.7233351 293.157799,35.676365 294.522352,35.676365 C295.55753,35.676365 295.181102,33.985441 295.181102,32.1536066 L295.181102,32.1536066 Z M295.181102,13.8352627 L295.228155,9.09128136 C295.275209,8.38672967 295.039941,6.9776263 295.698691,6.46095506 C296.592709,5.80337349 298.427797,6.46095506 299.227708,7.02459641 C301.580386,8.62158024 301.392172,12.5670697 300.121726,14.774665 C299.510029,15.8080074 298.474851,16.4186189 297.298512,16.7474097 C296.592709,16.9352901 295.275209,17.1701407 295.228155,16.042858 C295.228155,15.2913362 295.181102,13.8352627 295.181102,13.8352627 L295.181102,13.8352627 Z M318.627891,26.047492 L318.580837,26.047492 C318.580837,27.2217448 318.533784,28.4429677 318.580837,29.6641906 C318.627891,31.1672342 318.721998,32.6702778 318.816105,34.1733214 C318.816105,34.6899927 318.957266,34.830903 319.427801,34.9248432 C320.415926,35.1596938 321.356997,35.2066639 322.345122,35.2066639 C324.886015,35.1127237 327.426907,35.3006041 329.967799,35.2066639 C331.002977,35.1596938 331.473513,35.253634 332.508691,35.0657536 C333.449763,34.8778731 333.779137,34.3612019 333.779137,32.9520985 C333.68503,32.0596664 333.732084,31.6839055 333.732084,30.6035929 C333.732084,29.0535792 332.649852,28.5369079 331.708781,28.583878 C331.050031,28.6308482 327.897442,28.5369079 326.626996,28.5369079 C324.509586,28.583878 324.838961,28.8656987 324.838961,26.6581034 C324.838961,24.8732392 324.886015,22.5717036 324.886015,20.7398693 C324.886015,19.7534969 324.980122,19.4247061 325.921193,19.4247061 L331.802888,19.4247061 C332.743959,19.5656164 333.402709,18.9080349 333.402709,17.9216625 C333.402709,16.9352901 333.496816,16.88832 333.496816,15.9019477 L333.355655,14.4928443 C333.261548,13.6943524 332.979227,13.4125317 332.179316,13.4125317 C331.661727,13.4125317 331.144138,13.4595018 330.626549,13.5064719 C328.603246,13.6473823 327.662175,13.3655616 325.685925,13.5064719 C325.027175,13.5064719 324.933068,13.4125317 324.886015,12.8019202 C324.6978,10.9700859 324.886015,8.95037102 325.074229,7.11853664 C325.121282,6.36701484 325.309497,6.2261045 326.0153,6.17913439 L332.649852,6.13216427 C333.54387,6.03822405 333.826191,6.08519416 333.779137,5.19276202 C333.68503,3.83062876 333.826191,2.42152539 333.68503,1.05939212 C333.590923,0.307870325 333.355655,0.166959987 332.508691,0.166959987 C331.097085,0.2139301 330.76771,0.2139301 329.356103,0.307870325 C327.944496,0.354840437 322.298069,0.354840437 320.933515,0.354840437 C318.957266,0.354840437 318.816105,0.2139301 318.769052,2.60940584 C318.674945,4.48821034 318.721998,6.41398495 318.721998,8.33975956 C318.721998,11.6276674 318.533784,23.4171657 318.627891,26.047492 Z M362.307711,5.99125394 C362.354765,4.44124022 362.307711,3.17304719 362.307711,1.67000359 C362.307711,-0.0678905753 359.155123,0.119989875 358.025837,0.166959987 C352.991106,0.495750775 348.191643,3.68971842 345.886019,8.05793889 C345.227269,9.32613192 344.756733,10.6412951 344.427358,12.0034283 C343.627448,15.197396 343.580394,18.5792441 343.956823,21.8201818 C344.286198,24.8732392 345.086108,27.9262965 346.968251,30.3687423 C350.214946,34.6430226 356.190748,36.1460662 361.319586,35.3475742 C361.554854,35.3006041 361.790122,35.253634 361.978336,35.1127237 C362.119497,35.0187835 362.260658,34.830903 362.260658,34.6430226 L362.401818,31.9657261 C362.448872,31.1202641 362.401818,31.1672342 362.401818,30.3217722 C362.401818,29.1944895 360.04914,30.0399515 358.59048,30.0399515 C357.178873,30.0399515 355.673159,29.9929814 354.402713,29.3353998 C352.144142,28.0672068 350.873696,25.5308207 350.167893,23.135345 C349.367982,20.5519888 349.179768,17.7807522 349.650303,15.1504259 C350.214946,11.7216077 351.861821,7.77611821 355.484945,6.6018654 C357.555302,5.89731371 359.766819,6.13216427 361.837176,6.36701484 C362.119497,6.41398495 362.307711,6.2261045 362.307711,5.99125394 L362.307711,5.99125394 Z M397.141462,9.09128136 C398.129587,12.0034283 398.364855,15.1504259 398.364855,18.2504533 C398.364855,20.8338095 397.894319,23.3232254 397.235569,25.8126414 C396.388605,28.7717585 394.976998,31.4490549 392.436106,33.1869491 C390.553964,34.5490823 388.577714,35.4415145 386.27209,35.676365 C385.942715,35.676365 385.660393,35.7233351 385.331018,35.7233351 C385.048697,35.7233351 384.766376,35.676365 384.437001,35.676365 C382.131376,35.4415145 380.155127,34.5490823 378.225931,33.1869491 C375.732092,31.4490549 374.273432,28.7717585 373.473521,25.8126414 C372.767718,23.3232254 372.344236,20.8338095 372.344236,18.2504533 C372.344236,15.1504259 372.579504,12.0034283 373.567628,9.09128136 C375.30861,4.06547932 380.108073,0.495750775 385.331018,0.40181055 C390.553964,0.495750775 395.353427,4.06547932 397.141462,9.09128136 L397.141462,9.09128136 Z M392.577267,21.6792715 C393.047802,18.8140946 392.859588,15.9019477 392.294945,13.0367708 C391.730303,10.4534146 390.601017,7.91702855 388.436553,6.36701484 C388.060125,6.08519416 387.636643,5.8503436 387.213161,5.70943326 C386.601465,5.42761259 385.942715,5.33367236 385.331018,5.33367236 C384.719322,5.33367236 384.107626,5.42761259 383.49593,5.70943326 C383.025394,5.8503436 382.648966,6.08519416 382.272537,6.36701484 C380.06102,7.91702855 378.931734,10.4534146 378.414145,13.0367708 C377.849502,15.9019477 377.661288,18.8140946 378.131824,21.6792715 C378.602359,24.2626277 379.543431,27.738416 381.990216,29.0535792 C383.025394,29.6172205 384.154679,29.9929814 385.331018,30.0399515 C386.507357,29.9929814 387.683696,29.6172205 388.718875,29.0535792 C391.16566,27.738416 392.106731,24.2626277 392.577267,21.6792715 L392.577267,21.6792715 Z M414.141914,32.1536066 C414.141914,30.9323837 414.141914,23.2292852 414.188967,22.6186738 C414.236021,22.4777634 414.330128,22.1959427 414.518342,22.1959427 C414.706556,22.1959427 414.800663,22.289883 414.847717,22.4307933 C416.729859,26.0944621 418.376734,29.7581309 420.070662,33.3278594 C420.30593,33.8445306 420.823519,35.3475742 420.96468,35.4884846 C421.152894,35.7703053 421.482269,35.676365 421.76459,35.676365 L426.940482,35.7233351 C427.552178,35.7233351 427.693339,35.3475742 427.552178,34.830903 C427.17575,33.4217996 424.493697,28.4429677 423.882001,27.2217448 C423.458519,26.2823425 420.635305,20.8338095 420.541198,20.4110785 C420.447091,20.223198 421.152894,19.8944072 421.247001,19.7534969 C423.505572,17.7337821 425.528875,15.6670971 425.952357,12.5200996 C426.422893,9.42007215 425.71709,6.03822405 423.693786,3.54880809 C422.141019,1.7169737 420.117716,0.636661112 417.717984,0.495750775 C416.259324,0.40181055 414.847717,0.542720887 413.389057,0.495750775 C412.118611,0.448780662 411.224593,0.448780662 409.624772,0.448780662 C408.871915,0.448780662 408.401379,0.871511675 408.354326,1.67000359 L408.354326,2.23364494 C408.260219,5.8503436 408.354326,9.46704226 408.401379,13.0367708 C408.401379,18.4853039 408.307272,32.8581583 408.307272,34.9248432 C408.307272,35.5354547 408.401379,35.676365 408.966022,35.676365 C409.295397,35.676365 409.671825,35.7233351 410.0012,35.7233351 C411.3187,35.7233351 412.118611,35.676365 413.483164,35.676365 C414.518342,35.676365 414.141914,33.985441 414.141914,32.1536066 Z M414.141914,13.8352627 L414.188967,9.09128136 C414.236021,8.38672967 414.000753,6.9776263 414.659503,6.46095506 C415.55352,5.80337349 417.388609,6.46095506 418.18852,7.02459641 C420.541198,8.62158024 420.352984,12.5670697 419.082537,14.774665 C418.470841,15.8080074 417.435663,16.4186189 416.259324,16.7474097 C415.55352,16.9352901 414.236021,17.1701407 414.188967,16.042858 C414.188967,15.2913362 414.141914,13.8352627 414.141914,13.8352627 Z M457.351198,27.0338643 C457.63352,26.4232529 457.868787,25.8126414 458.104055,25.2020299 C458.621644,23.6989863 458.715752,22.1489726 458.856912,20.5989589 C459.139234,17.311051 459.045126,13.9761731 458.198162,10.7822054 C457.162984,6.69580562 454.527985,2.93819662 450.575486,1.20030246 C448.78745,0.40181055 446.764147,0.307870325 444.834951,0.354840437 C442.811648,0.354840437 440.741291,0.260900212 438.717988,0.448780662 C438.153346,0.495750775 437.871024,0.77757145 437.776917,1.29424269 C437.68281,1.85788404 437.588703,2.42152539 437.588703,2.93819662 C437.68281,5.80337349 437.588703,14.3049638 437.68281,15.7140672 C437.729864,16.9822603 437.588703,18.532274 437.588703,19.800467 C437.635756,22.9474645 437.588703,26.1414322 437.588703,29.2884297 C437.588703,30.6035929 437.541649,31.8717859 437.541649,33.1869491 C437.541649,34.5960524 437.02406,35.2066639 440.882452,35.2066639 C444.317362,35.2066639 447.893433,34.9248432 451.140128,33.7036203 C454.151556,32.6233077 456.033699,29.8520711 457.351198,27.0338643 L457.351198,27.0338643 Z M443.658612,22.1489726 L443.658612,16.5125591 C443.658612,12.9428306 443.752719,10.6412951 443.611559,7.63520787 L443.611559,7.07156652 C443.658612,6.08519416 443.799773,6.03822405 444.834951,6.03822405 C446.199504,5.99125394 447.187629,6.32004472 448.363968,6.78974585 C449.540307,7.25944697 450.199057,8.29278945 450.810753,9.27916181 C451.987092,11.2049364 452.457628,13.3185915 452.551735,15.5261868 C452.598789,16.7943798 452.645842,18.0625728 452.645842,19.3307659 C452.645842,25.3429403 449.116825,29.5232803 446.01129,29.5232803 C443.940934,29.5232803 443.611559,29.6641906 443.611559,28.3020574 C443.611559,26.892954 443.705666,25.4838506 443.705666,24.0747472 C443.658612,23.4641358 443.658612,22.8065542 443.658612,22.1489726 L443.658612,22.1489726 Z" id="Shape"></path>
                    </g>
                </g>
            </g>
        </g>
    </g>
</svg>